<svg width="16" height="16" viewBox="0 0 16 16" fill="none" xmlns="http://www.w3.org/2000/svg">
<path d="M8 16C12.4183 16 16 12.4183 16 8C16 3.58172 12.4183 0 8 0C3.58172 0 0 3.58172 0 8C0 12.4183 3.58172 16 8 16Z" fill="white"/>
<path d="M11.1145 10.3131L11.4689 8.00009H9.25032V6.49932C9.25032 5.86706 9.5597 5.24943 10.5542 5.24943H11.5634V3.28065C11.5634 3.28065 10.6476 3.12427 9.77233 3.12427C7.9453 3.12427 6.75053 4.23128 6.75053 6.23719V8.00009H4.71875V10.3131H6.75053V15.9033C7.15779 15.9675 7.57474 16 8 16C8.42526 16 8.84307 15.9663 9.25032 15.9033V10.3131H11.1145Z" fill="#4A68A8"/>
</svg>
