<svg width="42" height="42" viewBox="0 0 42 42" fill="none" xmlns="http://www.w3.org/2000/svg">
<path d="M21.0017 0.599609C9.73512 0.599609 0.601562 9.77136 0.601562 21.085C0.601562 31.232 7.95621 39.6355 17.5994 41.2628V25.3588H12.6782V19.6357H17.5994V15.4156C17.5994 10.5191 20.5775 7.85084 24.928 7.85084C27.0116 7.85084 28.8022 8.00675 29.322 8.07542V13.1935L26.3046 13.195C23.9392 13.195 23.4832 14.3235 23.4832 15.9801V19.6327H29.1273L28.3911 25.3559H23.4832V41.3996C33.5765 40.166 41.4016 31.5485 41.4016 21.0792C41.4016 9.77136 32.268 0.599609 21.0017 0.599609Z" fill="#765478"/>
</svg>
