<svg width="96" height="97" viewBox="0 0 96 97" fill="none" xmlns="http://www.w3.org/2000/svg">
<path d="M77.3306 70.6424L94.5025 87.8142C96.4992 89.811 96.4992 92.6064 94.5025 94.6031C92.5057 96.5998 89.7103 96.5998 87.7136 94.6031L70.5418 77.4313C62.9542 83.4214 53.37 87.0155 43.3863 87.0155C17.8283 87.0155 -2.53828 65.0516 0.257127 38.6949C2.25385 18.7276 18.627 2.75385 38.1949 0.757127C64.1522 -2.03828 86.5156 18.3283 86.5156 43.8863C86.9149 53.4706 83.7201 63.0549 77.3306 70.6424ZM67.7464 67.0483C73.7366 60.6588 77.3306 52.2726 77.3306 43.487C77.3306 23.5198 60.1588 7.94533 39.7923 9.94205C24.2178 11.5394 11.8381 24.3185 10.2407 39.4935C7.84467 59.8601 23.8185 77.0319 43.7857 77.0319C52.5713 77.0319 60.9575 73.8372 67.347 67.4477L67.7464 67.0483Z" fill="#765478"/>
<path fill-rule="evenodd" clip-rule="evenodd" d="M43.3912 18.2107C46.8147 18.2107 49.5899 20.9825 49.5899 24.4017V42.9747C49.5899 46.3939 46.8147 49.1657 43.3912 49.1657C39.9677 49.1657 37.1924 46.3939 37.1924 42.9747V24.4017C37.1924 20.9825 39.9677 18.2107 43.3912 18.2107ZM43.3912 55.3567C46.8147 55.3567 49.5899 58.1285 49.5899 61.5477V61.6096C49.5899 65.0288 46.8147 67.8006 43.3912 67.8006C39.9677 67.8006 37.1924 65.0288 37.1924 61.6096V61.5477C37.1924 58.1285 39.9677 55.3567 43.3912 55.3567Z" fill="#765478"/>
</svg>
