<svg width="42" height="42" viewBox="0 0 42 42" fill="none" xmlns="http://www.w3.org/2000/svg">
<path fill-rule="evenodd" clip-rule="evenodd" d="M17.25 31C24.8439 31 31 24.8439 31 17.25C31 9.65608 24.8439 3.5 17.25 3.5C9.65608 3.5 3.5 9.65608 3.5 17.25C3.5 24.8439 9.65608 31 17.25 31ZM33.5 17.25C33.5 26.2246 26.2246 33.5 17.25 33.5C8.27537 33.5 1 26.2246 1 17.25C1 8.27537 8.27537 1 17.25 1C26.2246 1 33.5 8.27537 33.5 17.25Z" fill="#FFDEA5"/>
<path d="M26.8597 30.3554C26.9334 30.4554 27.0156 30.5511 27.1061 30.6416L36.7322 40.2678C37.7085 41.2441 39.2915 41.2441 40.2678 40.2678C41.2441 39.2915 41.2441 37.7085 40.2678 36.7322L30.6416 27.1061C30.5511 27.0156 30.4554 26.9334 30.3554 26.8597C29.3747 28.1949 28.1949 29.3747 26.8597 30.3554Z" fill="#FFDEA5"/>
<path fill-rule="evenodd" clip-rule="evenodd" d="M17.25 8.5C17.9404 8.5 18.5 9.05964 18.5 9.75V16H24.75C25.4404 16 26 16.5596 26 17.25C26 17.9404 25.4404 18.5 24.75 18.5H18.5V24.75C18.5 25.4404 17.9404 26 17.25 26C16.5596 26 16 25.4404 16 24.75V18.5H9.75C9.05964 18.5 8.5 17.9404 8.5 17.25C8.5 16.5596 9.05964 16 9.75 16H16V9.75C16 9.05964 16.5596 8.5 17.25 8.5Z" fill="#FFDEA5"/>
<path fill-rule="evenodd" clip-rule="evenodd" d="M0 17.25C0 7.72309 7.72309 0 17.25 0C26.7769 0 34.5 7.72309 34.5 17.25C34.5 20.7475 33.4591 24.002 31.6702 26.7204L40.9749 36.0251C42.3417 37.392 42.3417 39.608 40.9749 40.9749C39.608 42.3417 37.392 42.3417 36.0251 40.9749L26.7204 31.6702C24.002 33.4591 20.7475 34.5 17.25 34.5C7.72309 34.5 0 26.7769 0 17.25ZM27.7716 28.289C27.9786 28.0917 28.18 27.8886 28.3756 27.68C30.9335 24.9526 32.5 21.2842 32.5 17.25C32.5 8.82766 25.6723 2 17.25 2C8.82766 2 2 8.82766 2 17.25C2 25.6723 8.82766 32.5 17.25 32.5C21.3296 32.5 25.035 30.8981 27.7716 28.289ZM28.341 30.4623L37.4393 39.5607C38.0251 40.1465 38.9749 40.1465 39.5607 39.5607C40.1465 38.9749 40.1465 38.0251 39.5607 37.4393L30.4623 28.341C30.4066 28.4074 30.3503 28.4733 30.2935 28.5388C29.6946 29.2303 29.0415 29.8737 28.341 30.4623ZM17.25 4.5C10.2084 4.5 4.5 10.2084 4.5 17.25C4.5 24.2916 10.2084 30 17.25 30C24.2916 30 30 24.2916 30 17.25C30 10.2084 24.2916 4.5 17.25 4.5ZM2.5 17.25C2.5 9.1038 9.1038 2.5 17.25 2.5C25.3962 2.5 32 9.1038 32 17.25C32 25.3962 25.3962 32 17.25 32C9.1038 32 2.5 25.3962 2.5 17.25ZM15 9.75C15 8.50736 16.0074 7.5 17.25 7.5C18.4926 7.5 19.5 8.50736 19.5 9.75V15H24.75C25.9926 15 27 16.0074 27 17.25C27 18.4926 25.9926 19.5 24.75 19.5H19.5V24.75C19.5 25.9926 18.4926 27 17.25 27C16.0074 27 15 25.9926 15 24.75V19.5H9.75C8.50736 19.5 7.5 18.4926 7.5 17.25C7.5 16.0074 8.50736 15 9.75 15H15V9.75ZM17.25 9.5C17.1119 9.5 17 9.61193 17 9.75V17H9.75C9.61193 17 9.5 17.1119 9.5 17.25C9.5 17.3881 9.61193 17.5 9.75 17.5H17V24.75C17 24.8881 17.1119 25 17.25 25C17.3881 25 17.5 24.8881 17.5 24.75V17.5H24.75C24.8881 17.5 25 17.3881 25 17.25C25 17.1119 24.8881 17 24.75 17H17.5V9.75C17.5 9.61193 17.3881 9.5 17.25 9.5Z" fill="#FFDEA5"/>
</svg>
