<svg width="96" height="97" viewBox="0 0 96 97" fill="none" xmlns="http://www.w3.org/2000/svg">
<path d="M38.0077 58.1479L32.1142 52.3117C30.8513 51.0611 28.3256 51.0611 27.0627 52.3117C25.7998 53.5623 25.7998 56.0636 27.0627 57.3142L37.1658 67.3191C38.8497 68.9865 41.3754 68.9865 43.0593 67.3191L67.0543 43.5574C68.3172 42.3068 68.3172 39.8056 67.0543 38.555C65.7914 37.3044 63.2656 37.3044 62.0027 38.555L42.2173 58.1479C40.5334 59.3985 38.8496 59.3985 38.0077 58.1479ZM46.8479 87.3288C37.5867 87.3288 28.7465 83.577 22.0111 77.324C15.2756 70.654 11.9079 61.8997 11.9079 52.7286C11.9079 43.5574 15.6966 34.8031 22.0111 28.1332C28.7465 21.4633 37.5867 18.1283 46.8479 18.1283C56.1092 18.1283 64.9494 21.8801 71.6848 28.1332C78.4203 34.8031 81.7881 43.5574 81.7881 52.7286C81.7881 61.8997 77.9993 70.654 71.6848 77.324C64.9494 83.577 56.1092 87.3288 46.8479 87.3288ZM46.8479 8.95716C35.0609 8.95716 24.1159 13.5427 15.6966 21.8801C7.27729 30.2176 2.64665 41.0562 2.64665 52.7286C2.64665 64.401 7.27729 75.2396 15.6966 83.577C24.1159 91.9144 35.0609 96.5 46.8479 96.5C58.635 96.5 69.58 91.9144 77.9993 83.577C86.4186 75.2396 91.0492 64.401 91.0492 52.7286C91.0492 41.0562 86.4186 30.2176 77.9993 21.8801C69.58 13.5427 58.635 8.95716 46.8479 8.95716ZM23.6949 2.28723C22.011 0.202878 19.0642 -0.213994 16.9594 1.87036L1.8048 14.3765C-0.300026 16.044 -0.721017 18.9621 1.38381 21.0464C3.06767 23.1308 6.01444 23.5476 8.11927 21.4633L23.2739 8.95716C24.9578 7.70654 25.3787 4.37158 23.6949 2.28723ZM91.8912 14.3765L76.7365 1.87036C74.6316 0.202876 71.6849 0.619749 70.001 2.28723C68.3171 4.37158 68.3172 7.28967 70.422 8.95716L85.5767 21.4633C87.6816 23.1308 90.6283 22.7139 92.3122 21.0464C94.417 18.9621 93.996 16.044 91.8912 14.3765Z" fill="#765478"/>
</svg>
