<svg width="40" height="40" viewBox="0 0 40 40" fill="none" xmlns="http://www.w3.org/2000/svg">
<path d="M20.0008 0.799805C25.2174 0.799805 25.8683 0.819005 27.915 0.915005C29.9598 1.011 31.3518 1.33164 32.5768 1.8078C33.844 2.29548 34.9115 2.95596 35.979 4.02156C36.9553 4.98136 37.7108 6.14238 38.1928 7.4238C38.667 8.64684 38.9896 10.0408 39.0856 12.0856C39.1758 14.1323 39.2008 14.7832 39.2008 19.9998C39.2008 25.2164 39.1816 25.8673 39.0856 27.914C38.9896 29.9588 38.667 31.3508 38.1928 32.5758C37.7122 33.8579 36.9565 35.0192 35.979 35.978C35.0189 36.954 33.858 37.7094 32.5768 38.1918C31.3537 38.666 29.9598 38.9886 27.915 39.0846C25.8683 39.1748 25.2174 39.1998 20.0008 39.1998C14.7841 39.1998 14.1333 39.1806 12.0865 39.0846C10.0417 38.9886 8.64974 38.666 7.42478 38.1918C6.14285 37.7108 4.98163 36.9552 4.02254 35.978C3.04604 35.0184 2.29057 33.8573 1.80878 32.5758C1.33262 31.3528 1.01198 29.9588 0.915981 27.914C0.825741 25.8673 0.800781 25.2164 0.800781 19.9998C0.800781 14.7832 0.819981 14.1323 0.915981 12.0856C1.01198 10.0388 1.33262 8.64876 1.80878 7.4238C2.28923 6.14159 3.04488 4.98026 4.02254 4.02156C4.98191 3.04473 6.14304 2.2892 7.42478 1.8078C8.64974 1.33164 10.0398 1.011 12.0865 0.915005C14.1333 0.824765 14.7841 0.799805 20.0008 0.799805ZM20.0008 10.3998C17.4547 10.3998 15.0129 11.4112 13.2126 13.2116C11.4122 15.0119 10.4008 17.4537 10.4008 19.9998C10.4008 22.5459 11.4122 24.9877 13.2126 26.788C15.0129 28.5884 17.4547 29.5998 20.0008 29.5998C22.5469 29.5998 24.9887 28.5884 26.789 26.788C28.5894 24.9877 29.6008 22.5459 29.6008 19.9998C29.6008 17.4537 28.5894 15.0119 26.789 13.2116C24.9887 11.4112 22.5469 10.3998 20.0008 10.3998ZM32.4808 9.9198C32.4808 9.28329 32.2279 8.67284 31.7778 8.22275C31.3278 7.77266 30.7173 7.5198 30.0808 7.5198C29.4443 7.5198 28.8338 7.77266 28.3837 8.22275C27.9336 8.67284 27.6808 9.28329 27.6808 9.9198C27.6808 10.5563 27.9336 11.1668 28.3837 11.6169C28.8338 12.0669 29.4443 12.3198 30.0808 12.3198C30.7173 12.3198 31.3278 12.0669 31.7778 11.6169C32.2279 11.1668 32.4808 10.5563 32.4808 9.9198ZM20.0008 14.2398C21.5284 14.2398 22.9935 14.8467 24.0737 15.9269C25.1539 17.0071 25.7608 18.4722 25.7608 19.9998C25.7608 21.5275 25.1539 22.9925 24.0737 24.0727C22.9935 25.153 21.5284 25.7598 20.0008 25.7598C18.4731 25.7598 17.0081 25.153 15.9278 24.0727C14.8476 22.9925 14.2408 21.5275 14.2408 19.9998C14.2408 18.4722 14.8476 17.0071 15.9278 15.9269C17.0081 14.8467 18.4731 14.2398 20.0008 14.2398Z" fill="#765478"/>
</svg>
