<svg width="106" height="26" viewBox="0 0 106 26" fill="none" xmlns="http://www.w3.org/2000/svg">
<path d="M80.0565 13.0291C80.0565 15.2446 79.578 17.4601 78.6212 19.359C77.1859 22.0493 74.9533 23.9482 72.0827 24.8977C68.4148 26.1637 64.7469 26.1637 61.2384 24.7395C57.0921 23.157 54.5405 19.992 53.7431 15.7193C53.2647 13.0291 53.4241 10.4971 54.381 7.96516C55.6568 4.4837 58.2084 2.10998 61.7168 0.843994C65.5442 -0.421992 69.3716 -0.263751 73.0396 1.31873C76.548 2.74297 78.6212 5.27494 79.578 8.91465C79.897 10.3389 80.0565 11.7631 80.0565 13.0291ZM72.8801 13.0291C72.8801 11.7631 72.7206 10.4971 72.0827 9.54765C70.9664 7.33217 68.5743 6.06618 65.8632 6.38268C63.3116 6.69918 61.7168 7.96516 60.9195 10.3389C60.441 11.7631 60.441 13.1874 60.6005 14.6116C61.0789 17.7766 63.4711 19.6755 66.5011 19.6755C68.7337 19.6755 70.6474 18.8843 71.7638 16.9853C72.7206 15.8776 72.8801 14.4533 72.8801 13.0291Z" fill="white"/>
<path d="M32.533 15.4028C32.533 16.5105 33.1709 17.46 33.9682 18.093C35.244 19.2007 36.8388 19.5172 38.4335 19.6755C40.1878 19.8337 41.7825 19.5173 43.3773 19.0425C43.8557 18.8843 44.4936 18.726 44.972 18.726C46.0883 18.5678 47.0452 18.8843 47.8426 19.8337C48.4805 20.7832 48.4805 21.891 48.002 22.8405C47.3641 24.1064 46.0883 24.7394 44.8125 25.2142C42.2609 26.0054 39.5499 26.1637 36.8388 25.8472C34.9251 25.6889 33.1709 25.0559 31.4166 24.2647C28.7056 22.8405 26.9513 20.625 26.154 17.7765C25.1971 14.4533 25.1971 11.1301 26.3134 7.96513C27.9082 3.69243 31.0977 1.3187 35.7225 0.527459C38.1146 0.210962 40.5067 0.36921 42.8988 1.3187C46.2478 2.74293 48.321 5.27491 49.1184 8.75637C49.4373 10.0224 49.5968 11.2883 49.4373 12.7126C49.2778 14.4533 48.321 15.4028 46.5668 15.561C46.0883 15.561 45.7694 15.561 45.291 15.561C41.3041 15.561 37.3172 15.561 33.3303 15.561C33.0114 15.4028 32.8519 15.4028 32.533 15.4028ZM32.533 10.6553C35.8819 10.6553 39.0714 10.6553 42.2609 10.6553C42.5799 8.91462 41.7825 7.33214 40.5067 6.5409C38.4335 5.43316 35.563 5.74965 33.8088 7.49038C33.0114 8.43987 32.533 9.38936 32.533 10.6553Z" fill="white"/>
<path d="M10.3659 25.8472C8.13323 25.8472 5.90058 25.5307 3.66793 24.7395C2.39213 24.2647 1.2758 23.6318 0.478425 22.524C0.159475 21.7328 0 20.9415 0 20.1503C0.159475 18.7261 0.95685 17.9348 2.39213 17.9348C3.03003 17.9348 3.66793 18.0931 4.30583 18.4096C5.7411 19.0426 7.0169 19.8338 8.61165 20.1503C10.0469 20.4668 11.4822 20.4668 12.9175 20.1503C13.077 20.1503 13.3959 19.992 13.5554 19.992C14.8312 19.3591 14.9907 17.9348 13.8743 17.1436C13.077 16.6688 12.1201 16.3523 11.1633 16.0358C9.5685 15.5611 7.97375 15.2446 6.379 14.7698C4.78425 14.2951 3.34898 13.5039 2.23265 12.2379C0.31895 9.86415 -0.159475 4.64196 3.8274 1.95174C5.42215 0.844004 7.17638 0.369262 9.09008 0.211014C11.4822 0.0527655 14.0338 0.211014 16.2665 1.00225C17.3828 1.31875 18.3396 1.7935 19.2965 2.58474C19.9344 3.05948 20.2533 3.85072 20.2533 4.64196C20.2533 6.54094 18.9775 7.64868 17.0638 7.33218C16.2665 7.17394 15.4691 6.85744 14.6717 6.69919C13.077 6.0662 11.4822 5.59145 9.72798 5.7497C9.5685 5.7497 9.24955 5.7497 9.09008 5.90795C8.45218 6.0662 7.97375 6.38269 7.81428 7.01568C7.6548 7.80692 7.81428 8.28168 8.45218 8.75642C9.24955 9.38941 10.2064 9.54766 11.1633 9.70591C12.5985 10.0224 14.0338 10.3389 15.4691 10.8136C16.5854 11.1301 17.5423 11.6049 18.4991 12.0796C20.4128 13.1874 21.3697 14.7698 21.5291 16.9853C21.6886 19.359 21.2102 21.5745 19.2965 23.3153C18.0207 24.423 16.4259 25.2142 14.8312 25.3725C13.3959 25.689 11.9606 25.8472 10.3659 25.8472C10.3659 26.0055 10.3659 26.0055 10.3659 25.8472Z" fill="white"/>
<path d="M94.7281 8.28163C95.366 7.33214 96.0039 6.5409 96.6418 5.74966C97.5987 4.48368 98.5555 3.37593 99.5124 2.10995C100.948 0.210968 103.34 0.369224 104.616 1.63521C105.891 2.74295 105.891 4.80017 104.935 6.06615C103.18 8.28163 101.426 10.4971 99.5124 12.7126C99.1934 13.0291 99.1934 13.1873 99.5124 13.5038C101.426 15.8776 103.34 18.093 105.253 20.4667C106.37 21.7327 106.21 23.6317 104.935 24.8977C103.659 26.0054 101.745 26.0054 100.469 24.7394C99.5124 23.6317 98.5555 22.524 97.7582 21.4162C96.8013 20.3085 95.8445 19.2008 95.0471 18.093C95.0471 18.093 94.8876 17.9348 94.8876 17.7765C94.5686 18.093 94.4092 18.4095 94.2497 18.5678C92.6549 20.4667 91.0602 22.3657 89.4654 24.1065C88.5086 25.2142 87.3923 25.8472 85.7975 25.5307C83.5649 25.0559 82.608 22.2075 84.0433 20.4667C86.1165 18.093 88.0302 15.7193 90.1033 13.1873L90.2628 13.0291C89.1465 11.6048 88.0302 10.3389 86.9138 8.91463C86.1165 7.96514 85.3191 7.01564 84.5217 6.06615C83.2459 4.80017 83.5649 2.58469 84.8407 1.47695C86.2759 0.210966 88.1896 0.369221 89.4654 1.79346C90.5818 3.05944 91.6981 4.48367 92.8144 5.90791C93.4523 6.5409 94.0902 7.33214 94.7281 8.28163Z" fill="white"/>
</svg>
