<svg width="181" height="43" viewBox="0 0 181 43" fill="none" xmlns="http://www.w3.org/2000/svg">
<path fill-rule="evenodd" clip-rule="evenodd" d="M28.9747 7.93539C28.6191 6.95736 28.2634 5.97934 27.9967 5.00131C27.9077 4.73457 27.9966 4.55675 28.2634 4.55675C35.9987 2.51177 42.3115 2.51176 50.1357 3.93435C50.847 4.11218 51.0249 4.29001 50.7581 5.00131C48.7132 9.44691 46.3125 13.0034 41.9558 15.3151C41.778 15.404 41.778 15.4929 41.9558 15.6707C45.6012 19.3161 48.0019 22.6948 50.7581 26.8736C51.1138 27.4071 51.4694 28.1184 50.3136 28.1184C43.2006 28.6519 37.2435 28.2073 31.8199 23.2283C31.5531 23.0504 31.5531 23.0504 31.8199 22.8726C32.5312 21.9835 33.3314 21.1833 34.1316 20.472C34.2205 20.3831 34.3094 20.3831 34.3983 20.472C37.1546 22.8726 41.6891 24.8287 45.3345 25.2732C45.868 25.3621 46.0458 25.1843 45.6901 24.7398C42.1337 20.0274 36.1765 15.2262 30.8418 12.2032C30.4862 11.9364 30.3084 11.7586 30.2195 11.5808C30.0416 11.0473 29.8638 10.6028 29.686 10.1582C29.5971 9.80254 29.7749 9.71363 29.8638 9.71363L32.4423 9.09125C32.6201 9.00234 32.7979 9.00234 33.1535 9.26907C34.9318 10.336 36.71 11.4919 38.3105 12.7366C41.1556 11.8475 43.823 9.53581 45.5123 7.13519C40.3554 6.51281 34.5761 7.04627 29.5081 8.37995C29.2414 8.29104 29.0636 8.20213 28.9747 7.93539ZM5.32411 24.6508C5.14628 24.9176 5.05736 25.1843 5.59083 25.1843C9.23622 24.7398 13.8597 22.8726 16.6159 20.472C16.7048 20.3831 16.8827 20.2942 17.0605 20.472C17.8607 21.1833 18.6609 21.9835 19.3722 22.8726C19.3722 22.9615 19.4611 23.0504 19.3722 23.1393C13.8596 28.2073 7.90255 28.563 0.789589 28.1184C-0.366267 28.0295 -0.0106188 27.4071 0.345029 26.7847C3.1013 22.6948 5.3241 19.2272 9.23623 15.5818C9.32514 15.4929 9.32514 15.404 9.23623 15.3151C4.87954 13.0923 2.47892 9.4469 0.345029 5.09021C-0.0106188 4.37891 0.167202 4.20109 0.96741 4.02327C8.70275 2.60068 15.1044 2.60068 22.8398 4.64565C23.0176 4.73456 23.1954 4.82348 23.1065 5.00131C22.7509 6.15716 22.3952 7.04628 22.0395 8.11323C21.9506 8.29105 21.8617 8.46887 21.3283 8.29105C16.4381 7.04628 10.8366 6.51281 5.85757 6.95737C5.50192 6.95737 5.32409 7.13518 5.59083 7.49083C7.28016 9.80254 9.94753 11.8475 12.6149 12.6477C14.3042 11.403 16.0824 10.1582 17.8607 9.09125C18.0385 9.00234 18.0385 9.00235 18.3052 9.00235L21.1504 9.62473C21.2393 9.62473 21.4172 9.71363 21.3283 9.98037C21.0615 10.6028 20.8837 11.0473 20.7059 11.6697C20.7059 11.7586 20.617 11.8475 20.5281 11.9364C15.1044 14.9594 8.9695 19.8496 5.32411 24.6508ZM19.8167 16.2042C19.2833 15.7596 18.7498 15.404 18.1274 15.0483C17.9496 14.9594 17.7718 14.9594 17.6829 15.0483C16.6159 15.7596 15.6379 16.5599 14.6599 17.3601C14.571 17.3601 14.482 17.449 14.6599 17.5379C24.0845 21.7168 24.0845 33.4531 25.1515 42.5221C25.1515 42.8778 25.6849 42.8778 25.7739 42.5221C26.8408 33.542 26.7519 21.8057 36.1765 17.6268C36.4433 17.5379 36.3544 17.449 36.1765 17.2712C35.1985 16.5599 34.3094 15.8486 33.3314 15.1373C33.0646 14.9594 32.9757 15.0484 32.7979 15.1373C32.2644 15.4929 31.7309 15.8486 31.2864 16.2042C31.1086 16.382 31.0197 16.2931 30.9307 16.2042C28.619 11.4919 27.1964 5.26803 25.6849 0.200052C25.596 -0.066684 25.4182 -0.066684 25.3293 0.200052C24.0845 5.0013 22.2174 11.8475 20.0835 16.2931C19.9946 16.2042 19.9057 16.2042 19.8167 16.2042ZM25.6849 13.5368C25.5071 12.9145 25.2404 13.1812 25.1515 13.5368C24.5291 15.404 23.7289 17.0933 22.7509 18.7827C22.6619 18.9605 22.6619 18.9605 22.7509 19.0494C23.8178 20.3831 24.618 21.7168 25.3293 23.2283C25.3293 23.3172 25.4182 23.3172 25.5071 23.2283C26.3073 21.5389 27.0186 20.5609 28.0856 19.0494C28.1745 18.9605 28.0856 18.8716 28.0856 18.7827C27.1075 17.0044 26.3962 15.4929 25.6849 13.5368Z" fill="#FFDEA5"/>
<path fill-rule="evenodd" clip-rule="evenodd" d="M64.9841 28.9186H68.6294C73.3418 28.9186 74.7644 27.1404 76.8983 23.7617C77.0761 23.495 77.3428 23.6728 77.2539 23.9396C76.8093 25.8067 76.3648 27.6739 76.0091 29.6299H56.982C57.2487 29.2743 57.3376 29.1854 57.7822 28.9186C58.4046 28.563 59.2048 28.1184 59.2048 26.8736V5.17913C59.2048 3.40089 57.7822 3.48981 56.982 2.51177H66.7623C66.051 3.57872 64.5395 3.40089 64.5395 5.17913V28.4741C64.6284 28.8297 64.8951 28.8297 64.9841 28.9186Z" fill="#FFDEA5"/>
<path fill-rule="evenodd" clip-rule="evenodd" d="M93.2581 15.9375V27.4071C93.6137 28.1184 94.1472 28.7408 94.7696 29.0965C95.392 29.4521 96.1032 29.6299 96.9035 29.6299C98.5928 29.6299 99.7486 28.8297 100.549 27.496C101.438 25.8956 101.794 23.5839 101.794 21.0944C101.794 19.2272 101.616 17.8046 101.082 16.6488C100.638 15.4929 99.8375 14.6927 98.6817 14.1592C97.8815 13.7147 96.9034 13.6258 95.9254 13.9814C95.0363 14.2481 94.0583 14.8705 93.2581 15.9375ZM88.4568 4.64566C88.4568 3.84545 87.9233 3.57871 87.5677 3.31198C87.3899 3.22306 87.212 3.13416 87.1231 2.95633L87.0342 2.86742L88.1901 2.60068H88.9014L92.9024 1.71156H93.1691V14.8705C93.1691 15.0484 93.1692 15.2262 93.4359 14.9595C94.1472 14.1592 94.8585 13.5369 95.5698 13.0923C96.4589 12.5588 97.5258 12.2921 98.6817 12.2921C100.816 12.2921 102.861 13.359 104.283 15.0484C105.706 16.6488 106.595 18.9605 106.595 21.3611C106.595 23.8506 105.528 26.1624 103.75 27.7628C100.816 30.4301 96.281 31.1414 92.6357 29.6299C91.2131 29.0075 90.5907 29.2743 90.0572 29.4521L88.8125 29.9856C88.5457 30.0745 88.3679 29.9856 88.3679 29.7188V21.3611L88.4568 4.64566Z" fill="#FFDEA5"/>
<path fill-rule="evenodd" clip-rule="evenodd" d="M119.309 14.5149C118.865 13.2701 118.064 12.5588 116.731 12.5588C115.575 12.5588 114.864 13.2701 114.33 14.3371C113.708 15.5818 113.441 17.449 113.263 19.4051C113.263 19.494 113.263 19.6718 113.53 19.6718H119.576C119.932 19.6718 119.932 19.494 119.932 19.4051C119.932 17.449 119.754 15.7597 119.309 14.5149ZM114.152 10.0693C116.108 8.37996 119.843 7.84648 120.376 5.7126C120.465 5.44586 120.554 5.09022 120.821 5.44587C121.265 6.06826 121.977 7.2241 121.621 8.20214C120.91 10.6028 116.464 9.26909 114.241 10.336C113.975 10.4249 113.975 10.2471 114.152 10.0693ZM111.04 27.5849C109.351 25.9845 108.284 23.6728 108.284 21.0944C108.284 18.6048 109.173 16.2931 110.774 14.6038C112.285 13.0034 114.33 12.0254 116.731 12.0254C118.865 12.0254 120.821 12.9145 122.243 14.3371C123.488 15.6707 124.377 17.5379 124.466 19.6718C124.466 19.9385 124.466 20.2053 123.844 20.2053H113.53C113.174 20.2053 113.174 20.2942 113.174 20.472C113.085 21.8946 113.263 24.0285 113.975 25.8067C114.508 27.1404 115.308 28.2073 116.553 28.7408C117.887 29.2743 119.043 29.1854 120.109 28.8297C120.91 28.563 121.71 28.1184 122.51 27.5849C123.044 27.2293 123.132 27.5849 122.777 27.9406C122.243 28.4741 121.621 29.0075 120.91 29.3632C120.021 29.8077 118.865 30.0745 117.709 30.0745C115.13 30.1634 112.73 29.1854 111.04 27.5849Z" fill="#FFDEA5"/>
<path fill-rule="evenodd" clip-rule="evenodd" d="M131.312 1.80048V27.6739C131.312 28.4741 131.846 28.8297 132.201 29.0965C132.379 29.1854 132.557 29.2743 132.646 29.4521L132.735 29.6299H125L125.089 29.4521C125.177 29.3632 125.355 29.1854 125.533 29.0965C125.889 28.8297 126.422 28.563 126.422 27.6739V4.64566C126.422 3.84545 125.889 3.48981 125.533 3.22307C125.355 3.13416 125.177 3.04524 125.089 2.86742L125 2.6896C126.956 2.24504 128.912 1.88939 130.779 1.44483C131.135 1.53375 131.312 1.62265 131.312 1.80048Z" fill="#FFDEA5"/>
<path fill-rule="evenodd" clip-rule="evenodd" d="M147.05 29.6299V27.6739C147.05 27.496 146.961 27.496 146.872 27.5849C146.072 28.3852 145.272 28.9186 144.382 29.3632C143.315 29.8967 142.16 30.1634 141.004 30.1634C139.314 30.1634 137.714 29.541 136.647 28.563C135.58 27.585 134.869 26.2513 134.869 24.6509V15.4929C134.869 14.6927 134.335 14.3371 133.98 14.0703C133.802 13.9814 133.624 13.8925 133.535 13.7147C133.535 13.6258 133.535 13.5369 133.624 13.5369L139.226 12.6477C139.403 12.6477 139.581 12.6477 139.581 12.9145V25.2732C139.581 26.1624 139.937 26.8737 140.47 27.4071C140.826 27.6739 141.182 27.9406 141.626 28.1184C142.071 28.2963 142.604 28.3852 143.049 28.3852C144.294 28.3852 145.716 27.8517 146.872 26.6069V15.4929C146.872 14.6927 146.339 14.3371 145.983 14.0703C145.805 13.9814 145.716 13.8925 145.627 13.8036C145.449 13.6258 145.538 13.5369 145.716 13.5369C147.583 13.2701 149.45 12.9145 151.318 12.6477C151.495 12.6477 151.673 12.6477 151.673 12.9145V26.6958C151.673 27.496 152.207 27.8517 152.562 28.0295C152.74 28.1184 152.918 28.2073 153.007 28.3852C153.096 28.4741 153.007 28.563 152.918 28.563L147.05 29.8077C147.139 29.8967 147.05 29.8078 147.05 29.6299Z" fill="#FFDEA5"/>
<path fill-rule="evenodd" clip-rule="evenodd" d="M169.011 21.3611C168.478 22.3391 168.3 23.3172 168.3 24.2952C168.3 25.4511 168.478 26.3402 168.833 26.9626C169.189 27.496 169.545 27.8517 170.078 28.0295C170.611 28.2073 171.145 28.2073 171.678 28.0295C172.39 27.8517 173.19 27.3182 173.901 26.6069V17.449C173.901 17.0044 173.723 17.2712 173.634 17.449C173.101 17.9825 172.301 18.427 171.056 19.2272L170.967 19.3161C170.078 19.7607 169.456 20.5609 169.011 21.3611ZM164.832 28.6519C163.943 27.6739 163.321 26.4291 163.321 24.9176C163.321 21.0944 167.144 19.6718 169.9 18.5159L170.256 18.3381C172.568 17.449 173.901 16.9155 173.901 15.5818V15.404C173.901 14.6927 173.723 13.8925 173.19 13.2701C172.034 12.0254 169.989 12.4699 168.833 13.5369C168.033 14.2482 167.5 15.2262 167.322 16.1153C167.322 16.2042 167.144 16.471 166.877 16.2931L164.832 15.4929C164.565 15.3151 164.743 15.1373 164.832 15.0484C167.766 11.6697 173.279 10.7806 176.657 13.8036C177.991 14.9595 178.702 16.5599 178.702 18.5159V26.6069C178.702 27.7628 179.503 27.7628 180.036 28.2073C180.125 28.2962 180.125 28.4741 179.947 28.4741C178.08 28.9186 176.124 29.2743 174.257 29.7188C174.079 29.7188 173.99 29.541 173.99 29.4521V27.7628C173.99 27.3182 173.812 27.496 173.634 27.585C173.101 28.1184 172.301 28.7408 171.501 29.1854C170.611 29.6299 169.633 29.9856 168.566 29.9856C167.055 30.1634 165.721 29.6299 164.832 28.6519Z" fill="#FFDEA5"/>
<path fill-rule="evenodd" clip-rule="evenodd" d="M86.0562 29.6299H78.4987L78.5876 29.4521C78.6765 29.3632 78.8543 29.1854 79.0321 29.0965C79.3878 28.8297 79.9213 28.563 79.9213 27.6739V15.6708C79.9213 14.8705 79.3878 14.5149 79.0321 14.2482C78.8543 14.1592 78.6765 14.0703 78.5876 13.8925L78.4987 13.7147C80.3658 13.2701 82.233 12.9145 84.1001 12.4699C84.4558 12.381 84.7225 12.2032 84.7225 12.8256V27.585C84.7225 28.3852 85.256 28.7408 85.6116 29.0076C85.7894 29.0965 85.9673 29.1854 86.0562 29.3632L86.1451 29.541H86.0562V29.6299ZM80.3658 6.77956C81.5217 5.71261 83.2999 5.71261 84.4558 6.77956C86.9453 9.09127 83.7445 11.9364 81.3439 11.0473C79.4767 10.336 78.6765 8.29106 80.3658 6.77956Z" fill="#FFDEA5"/>
<path fill-rule="evenodd" clip-rule="evenodd" d="M160.831 1.80048V27.6739C160.831 28.4741 161.365 28.8297 161.72 29.0965C161.898 29.1854 162.076 29.2743 162.165 29.4521L162.254 29.6299H154.518L154.607 29.4521C154.696 29.3632 154.874 29.1854 155.052 29.0965C155.408 28.8297 155.941 28.563 155.941 27.6739V4.64566C155.941 3.84545 155.408 3.48981 155.052 3.22307C154.874 3.13416 154.696 3.04524 154.607 2.86742L154.518 2.6896C156.474 2.24504 158.431 1.88939 160.298 1.44483C160.653 1.53375 160.831 1.62265 160.831 1.80048Z" fill="#FFDEA5"/>
<path fill-rule="evenodd" clip-rule="evenodd" d="M84.7657 41.3651H82.9023V36.4792H84.7657C85.2981 36.4792 86.008 36.6601 86.4516 37.203C86.8066 37.5649 87.0728 38.1078 87.0728 38.9221C87.0728 39.7364 86.8066 40.2793 86.4516 40.6412C86.008 41.1841 85.2981 41.3651 84.7657 41.3651ZM84.5883 37.2935H83.7009V40.6412H84.5883C85.1207 40.6412 85.5643 40.4603 85.8305 40.1888C86.0967 39.9174 86.2742 39.5555 86.2742 38.9221C86.2742 38.3792 86.0967 37.9268 85.8305 37.6554C85.5643 37.384 85.1207 37.2935 84.5883 37.2935ZM93.4615 41.3651H90.3559V36.4792H93.4615V37.2935H91.1545V38.4697H93.284V39.284H91.1545V40.6412H93.5503V41.4555H93.4615V41.3651ZM100.028 36.5697C100.294 36.6601 100.56 36.8411 100.738 37.1125L100.826 37.203L100.116 37.7459L100.028 37.6554C99.939 37.4744 99.7615 37.384 99.5841 37.2935C99.4066 37.203 99.2291 37.203 98.9629 37.203C98.5193 37.203 98.0756 37.384 97.8094 37.7459C97.5432 38.1078 97.3657 38.5602 97.3657 39.0126C97.3657 39.5555 97.5432 40.0079 97.8094 40.2793C98.0756 40.5507 98.5193 40.8222 98.9629 40.8222C99.2291 40.8222 99.4066 40.7317 99.6728 40.6412C99.8503 40.5508 100.028 40.3698 100.205 40.1888L100.294 40.0984L100.915 40.6412L100.826 40.7317C100.649 41.0031 100.383 41.2746 100.028 41.3651C99.7615 41.546 99.4066 41.546 98.9629 41.546C98.2531 41.546 97.632 41.2746 97.1883 40.8222C96.7446 40.3698 96.4784 39.7364 96.4784 39.0126C96.4784 38.2887 96.7446 37.6554 97.1883 37.203C97.632 36.7506 98.2531 36.4792 98.9629 36.4792C99.4066 36.3887 99.6728 36.4792 100.028 36.5697ZM108.102 40.7317C107.659 41.1841 107.038 41.4555 106.328 41.4555C105.618 41.4555 104.997 41.1841 104.553 40.7317C104.109 40.2793 103.843 39.6459 103.843 38.9221C103.843 38.1983 104.109 37.5649 104.553 37.1125C104.997 36.6601 105.618 36.3887 106.328 36.3887C107.038 36.3887 107.659 36.6601 108.102 37.1125C108.546 37.5649 108.812 38.1983 108.812 38.9221C108.812 39.6459 108.546 40.2793 108.102 40.7317ZM105.085 40.1888C105.352 40.4603 105.795 40.7317 106.239 40.7317C106.683 40.7317 107.126 40.5508 107.393 40.1888C107.659 39.8269 107.836 39.3745 107.836 38.9221C107.836 38.3792 107.659 37.9268 107.393 37.6554C107.126 37.384 106.683 37.1125 106.239 37.1125C105.795 37.1125 105.352 37.2935 105.085 37.6554C104.819 38.0173 104.642 38.4697 104.642 38.9221C104.642 39.465 104.819 39.9174 105.085 40.1888ZM112.717 41.3651H112.095V36.4792H113.338C113.781 36.4792 114.225 36.4792 114.669 36.6601C115.024 36.8411 115.29 37.203 115.29 37.8364C115.29 38.1983 115.201 38.4697 114.935 38.7412C114.757 38.9221 114.491 39.1031 114.225 39.1031L115.556 41.2746H114.58L113.338 39.1936H112.805V41.2746H112.717V41.3651ZM113.426 37.2935H112.805V38.5602H113.16C113.426 38.5602 113.781 38.5602 114.047 38.4697C114.225 38.3792 114.402 38.1983 114.402 37.9268C114.402 37.6554 114.314 37.4744 114.136 37.384C113.959 37.2935 113.693 37.2935 113.426 37.2935ZM118.839 41.3651H118.04C118.75 39.7364 119.46 38.1078 120.17 36.4792H120.88L122.921 41.3651H122.033L121.59 40.1888H119.46L118.839 41.3651ZM119.726 39.465H121.235L120.525 37.6554L119.726 39.465ZM128.955 36.5697C129.221 36.6601 129.487 36.8411 129.664 37.1125L129.753 37.203L129.043 37.7459L128.955 37.6554C128.866 37.4744 128.688 37.384 128.511 37.2935C128.333 37.203 128.156 37.203 127.89 37.203C127.446 37.203 127.002 37.384 126.736 37.7459C126.47 38.1078 126.293 38.5602 126.293 39.0126C126.293 39.5555 126.47 40.0079 126.736 40.2793C127.002 40.5507 127.446 40.8222 127.89 40.8222C128.156 40.8222 128.333 40.7317 128.6 40.6412C128.777 40.5508 128.955 40.3698 129.132 40.1888L129.221 40.0984L129.842 40.6412L129.753 40.7317C129.576 41.0031 129.309 41.2746 128.955 41.3651C128.688 41.546 128.333 41.546 127.978 41.546C128.156 41.546 128.245 41.6365 128.422 41.727C128.511 41.8175 128.6 41.9984 128.6 42.1794C128.6 42.4508 128.511 42.5413 128.333 42.7223C128.156 42.8127 127.89 42.9032 127.712 42.9032C127.624 42.9032 127.446 42.9032 127.357 42.9032C127.269 42.9032 127.091 42.8127 127.002 42.8127L126.914 42.7223L127.091 42.2699L127.18 42.3603C127.269 42.3603 127.357 42.4508 127.357 42.4508C127.446 42.4508 127.535 42.4508 127.535 42.4508C127.624 42.4508 127.712 42.4508 127.712 42.3603L127.801 42.2699V42.1794C127.801 42.1794 127.712 42.1794 127.624 42.1794H127.357L127.091 41.9079L127.357 41.546C126.825 41.4556 126.381 41.1841 126.026 40.7317C125.671 40.2793 125.405 39.7364 125.405 39.0126C125.405 38.2887 125.671 37.6554 126.115 37.203C126.559 36.7506 127.18 36.4792 127.89 36.4792C128.333 36.3887 128.6 36.4792 128.955 36.5697ZM133.214 41.3651H132.415C133.125 39.7364 133.835 38.1078 134.545 36.4792H135.255L137.295 41.3651H136.408L135.964 40.1888H133.835L133.214 41.3651ZM134.012 39.465H135.521L134.811 37.6554L134.012 39.465ZM134.19 36.1173C134.19 36.1173 134.101 36.2077 134.101 36.2982V36.3887H133.569V36.2077C133.569 36.0268 133.657 35.7553 133.835 35.6648C133.924 35.5744 134.101 35.4839 134.367 35.4839C134.545 35.4839 134.722 35.5744 134.9 35.6648L134.988 35.7553C135.077 35.7553 135.077 35.8458 135.166 35.8458H135.255C135.255 35.8458 135.343 35.7553 135.343 35.6648V35.5744H135.876V35.7553C135.876 35.9363 135.787 36.2077 135.61 36.2982C135.521 36.3887 135.343 36.4792 135.166 36.4792C135.077 36.4792 134.988 36.4792 134.9 36.3887C134.811 36.3887 134.722 36.2982 134.633 36.2982H134.545C134.456 36.2982 134.367 36.2077 134.19 36.2077C134.279 36.0268 134.279 36.1173 134.19 36.1173ZM144.128 40.7317C143.684 41.1841 143.063 41.4555 142.353 41.4555C141.643 41.4555 141.022 41.1841 140.579 40.7317C140.135 40.2793 139.869 39.6459 139.869 38.9221C139.869 38.1983 140.135 37.5649 140.579 37.1125C141.022 36.6601 141.643 36.3887 142.353 36.3887C143.063 36.3887 143.684 36.6601 144.128 37.1125C144.571 37.5649 144.838 38.1983 144.838 38.9221C144.838 39.6459 144.571 40.2793 144.128 40.7317ZM141.2 40.1888C141.466 40.4603 141.91 40.7317 142.353 40.7317C142.797 40.7317 143.24 40.5508 143.507 40.1888C143.773 39.8269 143.95 39.3745 143.95 38.9221C143.95 38.3792 143.773 37.9268 143.507 37.6554C143.24 37.384 142.797 37.1125 142.353 37.1125C141.91 37.1125 141.466 37.2935 141.2 37.6554C140.933 38.0173 140.756 38.4697 140.756 38.9221C140.756 39.465 140.933 39.9174 141.2 40.1888Z" fill="#FFDEA5"/>
</svg>
