<svg width="87" height="33" viewBox="0 0 87 33" fill="none" xmlns="http://www.w3.org/2000/svg">
<path fill-rule="evenodd" clip-rule="evenodd" d="M10.3172 5.12708L6.57098 0.97949C6.43719 0.845697 6.30339 0.912594 6.30339 1.11328V21.1154C6.30339 21.2491 6.37029 21.4498 6.43719 21.4498L16.271 32.354C16.4048 32.4878 16.5386 32.4878 16.6724 32.354L26.5061 21.4498C26.573 21.3829 26.6399 21.1822 26.6399 21.1154V15.5629C26.6399 15.3622 26.4393 15.2954 26.3724 15.4291L16.5386 26.1326C16.4717 26.2664 16.271 26.2664 16.1372 26.1326L10.451 19.8443C10.451 19.7774 10.3841 19.5767 10.3841 19.5098V5.52846C10.3841 5.39466 10.3841 5.19397 10.3172 5.12708ZM27.8441 11.9505C27.8441 11.7498 27.6434 11.6829 27.5765 11.8167L16.5386 24.0588C16.4717 24.1926 16.271 24.1926 16.1372 24.0588L11.8558 19.3091C11.7889 19.2422 11.722 19.0416 11.722 18.9747V13.4222C11.722 13.2216 11.9227 13.1547 11.9896 13.2885L16.1372 17.8374C16.2041 17.9043 16.271 17.9712 16.4048 17.8374L31.6572 0.912594C31.791 0.778801 31.9248 0.845698 31.9248 1.04639V23.1891C31.9248 23.3229 31.8579 23.5236 31.791 23.5236L24.4324 31.8857C24.2986 32.0195 24.1648 31.9526 24.1648 31.7519V26.2664C24.1648 26.1326 24.2317 25.9319 24.2986 25.9319L27.7772 22.0519C27.8441 21.985 27.911 21.7843 27.911 21.7174V11.9505H27.8441ZM4.83167 21.6505C4.83167 21.7843 4.89857 21.985 4.96546 21.985L8.44408 25.865C8.51098 25.9319 8.57788 26.1326 8.57788 26.1995V31.7519C8.57788 31.9526 8.37719 32.0195 8.31029 31.8857L0.750981 23.5905C0.684085 23.5236 0.617188 23.3229 0.617188 23.256V1.11328C0.617188 0.912594 0.817878 0.845697 0.884774 0.97949L4.63098 5.12708C4.69788 5.19397 4.76477 5.39466 4.76477 5.46156L4.83167 21.6505ZM22.4255 5.12708L26.1717 0.97949C26.3055 0.845697 26.4393 0.912594 26.4393 1.11328V4.7257C26.4393 4.85949 26.3724 5.06018 26.3055 5.06018L22.5593 9.20777C22.4255 9.34156 22.2917 9.27466 22.2917 9.07397V5.52846C22.2917 5.39466 22.3586 5.19397 22.4255 5.12708Z" fill="#D9B785"/>
<path d="M43.4375 13.6899V9.67609L41.8989 13.6899H41.163L39.6244 9.67609V13.6899H38.0189V7.5354H40.2265L41.4975 10.8802L42.7685 7.5354H44.9761V13.6899H43.4375Z" fill="#D9B785"/>
<path d="M50.3261 13.6899L49.9916 12.8202H47.5833L47.2489 13.6899H45.5096L47.8509 7.5354H49.8578L52.1992 13.6899H50.3261ZM48.7875 9.07402L47.9847 11.4154H49.5902L48.7875 9.07402Z" fill="#D9B785"/>
<path d="M56.0156 13.6899L55.0121 11.6161H54.2094V13.6899H52.6038V7.5354H55.6811C57.019 7.5354 57.8218 8.47195 57.8218 9.60919C57.8218 10.6795 57.1528 11.2816 56.6176 11.4823L57.8887 13.7568H56.0156V13.6899ZM56.2163 9.54229C56.2163 9.14091 55.8818 8.87333 55.4804 8.87333H54.2094V10.2113H55.4804C55.8818 10.2113 56.2163 9.94367 56.2163 9.54229Z" fill="#D9B785"/>
<path d="M58.4215 10.6126C58.4215 8.73954 59.8932 7.40161 61.7663 7.40161C63.2381 7.40161 64.0408 8.27126 64.4422 9.07402L63.1043 9.74298C62.9036 9.27471 62.3684 8.87333 61.7663 8.87333C60.7629 8.87333 60.027 9.67609 60.027 10.6795C60.027 11.683 60.7629 12.4857 61.7663 12.4857C62.3684 12.4857 62.9036 12.0844 63.1043 11.6161L64.4422 12.2851C64.0408 13.0878 63.2381 13.9575 61.7663 13.9575C59.8263 13.7568 58.4215 12.4857 58.4215 10.6126Z" fill="#D9B785"/>
<path d="M65.1136 13.6899V7.5354H69.6625V8.87333H66.7191V9.80988H69.5956V11.2147H66.7191V12.2851H69.6625V13.6899H65.1136Z" fill="#D9B785"/>
<path d="M70.599 13.6899V7.5354H72.2045V12.2851H74.6797V13.6899H70.599Z" fill="#D9B785"/>
<path d="M75.4781 13.6899V7.5354H77.0836V12.2851H79.5588V13.6899H75.4781Z" fill="#D9B785"/>
<path d="M79.8268 10.6126C79.8268 8.73954 81.2316 7.40161 83.1047 7.40161C84.9778 7.40161 86.3827 8.73954 86.3827 10.6126C86.3827 12.4857 84.9778 13.8237 83.1047 13.8237C81.2316 13.7568 79.8268 12.4857 79.8268 10.6126ZM84.7771 10.6126C84.7771 9.60919 84.1082 8.80643 83.1047 8.80643C82.1013 8.80643 81.4323 9.60919 81.4323 10.6126C81.4323 11.6161 82.1013 12.4188 83.1047 12.4188C84.1082 12.352 84.7771 11.5492 84.7771 10.6126Z" fill="#D9B785"/>
<path d="M39.9569 23.7175L37.7493 18.2319H38.2845L40.2914 23.1823L42.2983 18.2319H42.8335L40.559 23.7175H39.9569Z" fill="#D9B785"/>
<path d="M46.9124 23.7175L46.3772 22.3795H43.5006L42.9655 23.7175H42.4303L44.7048 18.2319H45.3068L47.5813 23.7175H46.9124ZM44.9055 18.7671L43.6344 21.9781H46.2434L44.9055 18.7671Z" fill="#D9B785"/>
<path d="M51.9967 23.7175L48.518 19.0347V23.7175H48.0498V18.2319H48.518L51.9298 22.8478V18.2319H52.398V23.7175H51.9967Z" fill="#D9B785"/>
<path d="M53.337 23.7175V23.3161L56.6149 18.7002H53.337V18.2319H57.217V18.6333L53.939 23.3161H57.2839V23.7175H53.337Z" fill="#D9B785"/>
<path d="M58.2219 23.7175V18.2319H58.6902V23.7175H58.2219Z" fill="#D9B785"/>
<path d="M59.825 23.7175V18.2319H60.2933V23.3161H62.9691V23.7175H59.825Z" fill="#D9B785"/>
<path d="M63.7715 23.7175V18.2319H64.2397V23.3161H66.9156V23.7175H63.7715Z" fill="#D9B785"/>
<path d="M67.1816 20.9747C67.1816 19.3692 68.252 18.165 69.8575 18.165C71.463 18.165 72.5333 19.3692 72.5333 20.9747C72.5333 22.5802 71.463 23.7843 69.8575 23.7843C68.252 23.8512 67.1816 22.5802 67.1816 20.9747ZM71.9982 20.9747C71.9982 19.5699 71.1285 18.5664 69.8575 18.5664C68.5195 18.5664 67.7168 19.5699 67.7168 20.9747C67.7168 22.3795 68.5864 23.383 69.8575 23.383C71.1954 23.383 71.9982 22.3795 71.9982 20.9747Z" fill="#D9B785"/>
<path d="M74.6073 23.7175V18.6333H72.8011V18.2319H76.8818V18.6333H75.0756V23.7175H74.6073Z" fill="#D9B785"/>
<path d="M79.09 23.7175V18.6333H77.2838V18.2319H81.3645V18.6333H79.5583V23.7175H79.09Z" fill="#D9B785"/>
<path d="M85.5169 23.7175L84.9818 22.3795H82.1052L81.57 23.7175H80.968L83.2424 18.2319H83.8445L86.119 23.7175H85.5169ZM83.51 18.7671L82.239 21.9781H84.848L83.51 18.7671Z" fill="#D9B785"/>
</svg>
