<svg width="200" height="154" viewBox="0 0 200 154" fill="none" xmlns="http://www.w3.org/2000/svg">
<path d="M106.818 16.6226C106.963 17.0562 107.396 17.3453 107.975 17.2008C118.237 14.4544 130.234 13.4426 140.642 14.599C137.173 19.658 131.68 24.2834 125.898 26.018C122.574 23.4162 118.96 21.1035 115.346 18.9353C114.624 18.5017 114.335 18.5017 113.901 18.6462L108.553 19.8026C108.264 19.8026 107.975 20.0917 108.119 20.8144C108.553 21.8262 108.842 22.6935 109.276 23.8498C109.42 24.2834 109.709 24.7171 110.432 25.1507C121.128 31.3661 133.27 41.0506 140.642 50.7351C141.22 51.6023 140.931 51.8914 139.919 51.8914C132.403 51.0241 123.152 47.1214 117.515 42.0624C117.225 41.7733 117.081 41.9178 116.936 42.0624C115.202 43.5078 113.612 45.0978 112.166 46.9769C111.733 47.5551 111.733 47.4105 112.166 47.8442C123.296 57.9623 135.583 58.9741 150.037 57.8177C152.35 57.6732 151.627 56.3723 150.904 55.2159C145.267 46.8324 140.353 39.8942 132.981 32.3779C132.692 32.0888 132.692 31.9443 132.981 31.6552C141.943 27.0298 146.857 19.658 151.049 10.6963C151.627 9.39537 151.338 8.96175 149.748 8.67266C133.704 5.63723 120.695 5.78177 105.084 9.82902C104.65 9.97356 104.361 10.2626 104.506 10.8408C105.517 12.7199 106.096 14.599 106.818 16.6226Z" fill="#FFDEA5"/>
<path d="M87.1603 47.5551C87.4493 47.266 87.3048 47.1215 87.1603 46.9769C85.7148 45.0978 84.1248 43.5078 82.3903 42.0624C81.9567 41.7733 81.8121 41.9179 81.523 42.0624C75.8858 46.9769 66.4904 50.8796 59.1186 51.7469C57.9623 51.8914 58.2514 51.1687 58.5405 50.7351C66.0568 40.906 78.4876 30.9325 89.473 24.8616C89.7621 24.7171 89.7621 24.5726 89.9066 24.2835C90.3402 22.9826 90.7739 21.9707 91.2075 20.8144C91.4966 20.2362 91.063 20.0917 90.7739 19.9471L84.9921 18.6462C84.4139 18.5017 84.4139 18.6462 84.1248 18.7908C80.3667 20.9589 76.7531 23.4162 73.284 26.018C67.7913 24.428 62.5877 20.0917 58.9741 15.4663C58.3959 14.7435 58.8296 14.4544 59.5523 14.4544C69.6704 13.4426 81.2339 14.599 91.063 17.2008C92.2193 17.4899 92.3639 17.3453 92.5084 16.7671C93.2311 14.599 93.9538 12.7199 94.6766 10.5518C94.8211 10.1181 94.532 9.82903 94.0984 9.82903C78.1985 5.63724 65.1895 5.63724 49.4342 8.67267C47.9887 8.96176 47.5551 9.39539 48.2778 10.8408C52.4696 19.8026 57.3841 27.1743 66.3459 31.7998C66.4904 31.7998 66.635 32.0889 66.3459 32.2334C58.3959 39.7497 53.9151 46.6878 48.2778 55.0714C47.5551 56.3723 46.8324 57.6732 49.1451 57.8178C63.7441 58.685 75.8858 57.9623 87.1603 47.5551Z" fill="#FFDEA5"/>
<path d="M88.1721 33.3897C87.1603 32.5225 86.0039 31.7998 84.703 31.077C84.2694 30.7879 84.1248 30.9325 83.8357 31.077C81.6676 32.667 79.7885 34.1125 77.6203 35.7024C77.4758 35.847 77.3312 35.847 77.6203 35.9915C96.9893 44.5196 96.8447 68.514 99.0129 86.8711C99.1574 87.5939 100.169 87.5939 100.314 86.8711C102.482 68.514 102.337 44.6642 121.562 36.1361C121.995 35.9915 121.995 35.7024 121.562 35.5579C119.538 34.1124 117.804 32.667 115.636 31.077C115.202 30.7879 114.913 30.7879 114.624 31.077C113.467 31.7998 112.456 32.5225 111.444 33.2452C111.01 33.5343 110.866 33.3897 110.721 33.1006C105.951 23.4162 103.06 10.6963 100.025 0.433633C99.8802 -0.144544 99.4465 -0.144544 99.4465 0.433633C96.8447 10.2626 93.2311 24.1389 88.6057 33.3897C88.4612 33.5343 88.3166 33.5343 88.1721 33.3897ZM94.3875 38.8824C96.4111 35.2688 98.0011 31.9443 99.302 28.1861C99.5911 27.608 99.8802 27.0298 100.314 28.1861C101.615 32.0888 103.205 35.2688 105.228 38.8824C105.373 39.027 105.373 39.3161 105.228 39.4606C103.06 42.496 101.47 44.5197 99.8802 47.9887C99.7356 48.2778 99.5911 48.1333 99.5911 47.9887C98.1456 44.8087 96.5557 42.207 94.3875 39.4606C94.2429 39.1715 94.0984 39.027 94.3875 38.8824Z" fill="#FFDEA5"/>
<path d="M32.3779 125.175C28.7643 130.668 26.4516 133.559 18.9353 133.559H13.009C12.8644 133.414 12.4308 133.414 12.4308 132.981V95.1102C12.4308 92.2193 14.7435 92.3639 16.0444 90.7739H0C1.15636 92.5084 3.61361 92.2193 3.61361 95.1102V130.379C3.61361 132.403 2.31271 133.125 1.3009 133.704C0.57818 134.137 0.433633 134.137 0 134.86H30.9325C31.6552 131.824 32.3779 128.789 32.9561 125.609C33.1007 125.031 32.667 124.742 32.3779 125.175Z" fill="#FFDEA5"/>
<path d="M67.9359 106.096C66.0568 106.096 64.4668 106.529 62.8768 107.396C61.7205 108.119 60.5641 109.131 59.4077 110.432C58.9741 110.866 58.9741 110.576 58.9741 110.287V88.8948H58.5405L52.036 90.3402H50.8796L49.0005 90.7739L49.1451 90.9184C49.2896 91.0629 49.5787 91.352 49.8678 91.4966C50.446 91.9302 51.3133 92.3639 51.3133 93.6648V133.848C51.3133 134.282 51.6023 134.571 52.036 134.282L54.0596 133.414C54.9269 133.125 55.9387 132.692 58.2514 133.704C64.1777 136.305 71.5495 135.149 76.3194 130.668C79.2103 128.066 80.9449 124.308 80.9449 120.261C80.9449 116.214 79.4994 112.6 77.1867 109.998C74.5849 107.83 71.4049 106.096 67.9359 106.096ZM70.8268 131.246C69.5258 133.414 67.6468 134.715 64.9004 134.715C63.5995 134.715 62.4432 134.426 61.4314 133.848C60.4196 133.27 59.5523 132.258 58.9741 131.102V112.456C60.4196 110.721 61.865 109.709 63.3104 109.276C64.9004 108.697 66.4904 108.842 67.7913 109.565C69.6704 110.432 70.9713 111.733 71.694 113.612C72.5613 115.491 72.8504 117.804 72.8504 120.839C72.8504 124.886 72.2722 128.644 70.8268 131.246Z" fill="#FFDEA5"/>
<path d="M106.674 131.535C105.517 132.403 104.217 133.125 102.771 133.559C101.037 134.137 99.0129 134.282 96.9893 133.414C94.9657 132.547 93.5202 130.813 92.7975 128.644C91.6411 125.754 91.4966 122.285 91.4966 119.972C91.4966 119.683 91.4966 119.538 92.0748 119.538H108.842C109.854 119.538 109.854 118.96 109.854 118.671C109.709 115.202 108.408 112.166 106.24 109.998C103.927 107.541 100.747 106.24 97.2784 106.24C93.3757 106.24 90.0511 107.83 87.5939 110.432C85.1366 113.178 83.5467 116.792 83.5467 120.984C83.5467 125.031 85.2812 128.789 88.0275 131.535C90.7739 134.137 94.532 135.727 98.8683 135.727C100.747 135.727 102.627 135.294 104.072 134.571C105.228 133.993 106.24 133.125 107.107 132.258C107.686 131.535 107.541 130.957 106.674 131.535ZM91.4966 118.093C91.6411 114.913 92.2193 112.022 93.2311 109.854C94.0984 107.975 95.3993 106.963 97.1338 106.963C99.302 106.963 100.603 108.119 101.326 110.143C102.048 112.022 102.193 114.768 102.337 118.237C102.337 118.526 102.337 118.671 101.759 118.671H91.9302C91.4966 118.671 91.4966 118.382 91.4966 118.093Z" fill="#FFDEA5"/>
<path d="M103.06 95.8329C102.193 99.302 96.122 100.169 92.942 102.916C92.6529 103.205 92.6529 103.494 93.2311 103.205C96.9893 101.47 104.072 103.783 105.228 99.7356C105.662 98.1456 104.65 96.2665 103.927 95.2547C103.349 94.8211 103.205 95.3993 103.06 95.8329Z" fill="#FFDEA5"/>
<path d="M111.444 133.848C111.155 133.993 110.866 134.137 110.721 134.426L110.576 134.715H123.152L123.007 134.426C122.863 134.282 122.574 133.993 122.285 133.848C121.706 133.414 120.839 132.981 120.839 131.535V89.4729C120.839 89.0393 120.695 88.8948 120.116 89.0393C116.936 89.762 113.756 90.3402 110.721 91.0629L110.866 91.352C111.01 91.4966 111.299 91.7857 111.588 91.9302C112.166 92.3638 113.034 92.7975 113.034 94.2429V131.68C113.034 132.981 112.166 133.414 111.444 133.848Z" fill="#FFDEA5"/>
<path d="M155.674 132.114C155.096 131.68 154.229 131.246 154.229 129.945V107.541C154.229 107.107 153.94 107.107 153.651 107.107C150.615 107.541 147.58 108.119 144.544 108.553C144.255 108.553 144.111 108.697 144.4 108.986C144.544 109.131 144.833 109.276 144.978 109.42C145.556 109.854 146.423 110.287 146.423 111.733V129.801C144.544 131.824 142.232 132.692 140.208 132.692C139.341 132.692 138.618 132.547 137.895 132.258C137.173 131.969 136.594 131.535 136.016 131.102C135.149 130.234 134.571 129.078 134.571 127.633V107.541C134.571 107.107 134.137 107.107 133.993 107.107L124.886 108.553C124.597 108.553 124.597 108.842 124.742 108.842C124.886 108.986 125.175 109.276 125.465 109.42C126.043 109.854 126.91 110.287 126.91 111.733V126.621C126.91 129.223 128.066 131.391 129.801 132.981C131.68 134.571 134.137 135.583 136.884 135.583C138.618 135.583 140.497 135.149 142.376 134.282C143.822 133.559 145.123 132.692 146.423 131.391C146.568 131.246 146.713 131.246 146.713 131.535V134.715C146.713 134.86 146.857 135.149 147.002 135.004L156.542 132.981C156.686 132.981 156.686 132.836 156.686 132.692C156.252 132.547 155.963 132.258 155.674 132.114Z" fill="#FFDEA5"/>
<path d="M197.881 129.801V116.647C197.881 113.467 196.725 110.866 194.557 108.986C188.92 104.072 180.102 105.517 175.332 111.01C175.188 111.155 174.899 111.444 175.332 111.733L178.657 113.034C179.09 113.178 179.38 112.889 179.38 112.745C179.813 111.444 180.68 109.854 181.837 108.553C183.716 106.818 187.04 106.096 188.92 108.119C189.787 109.131 190.076 110.432 190.076 111.588V111.877C190.076 114.046 187.908 114.913 184.15 116.358L183.571 116.647C179.09 118.382 172.875 120.839 172.875 127.055C172.875 129.512 173.742 131.68 175.332 133.125C176.778 134.715 178.946 135.583 181.259 135.583C182.993 135.583 184.583 135.004 186.029 134.282C187.474 133.559 188.63 132.547 189.498 131.68C189.787 131.391 190.076 131.246 190.076 131.969V134.715C190.076 134.86 190.22 135.149 190.51 135.149C193.545 134.426 196.725 133.848 199.76 133.125C200.049 132.981 200.049 132.836 199.905 132.692C199.038 131.68 197.881 131.68 197.881 129.801ZM190.076 129.656C188.92 130.813 187.619 131.68 186.462 131.969C185.595 132.258 184.583 132.258 183.86 131.969C182.993 131.68 182.415 131.102 181.837 130.234C181.259 129.223 180.97 127.777 180.97 125.898C180.97 124.308 181.403 122.574 182.126 121.128C182.849 119.827 183.86 118.526 185.306 117.659L185.45 117.515C187.474 116.358 188.775 115.491 189.642 114.624C189.787 114.479 190.076 113.901 190.076 114.624V129.656Z" fill="#FFDEA5"/>
<path d="M39.6052 104.506C43.5079 105.951 48.5669 101.181 44.6642 97.5675C42.7851 95.8329 39.8943 95.8329 38.0152 97.5675C35.2688 100.025 36.4252 103.349 39.6052 104.506Z" fill="#FFDEA5"/>
<path d="M46.6878 133.848C46.1097 133.414 45.2424 132.981 45.2424 131.535V107.541C45.2424 106.529 44.8088 106.818 44.2306 106.963C41.1951 107.686 38.1597 108.264 35.1243 108.986L35.2688 109.276C35.4134 109.42 35.7025 109.709 35.9916 109.854C36.5697 110.287 37.437 110.721 37.437 112.166V131.68C37.437 132.981 36.5697 133.559 35.9916 133.993C35.7025 134.137 35.4134 134.282 35.2688 134.571L35.1243 134.86H47.8442L47.6996 134.571C47.266 134.137 46.9769 133.993 46.6878 133.848Z" fill="#FFDEA5"/>
<path d="M170.273 133.848C169.695 133.414 168.828 132.981 168.828 131.535V89.4729C168.828 89.0393 168.683 88.8948 168.105 89.0393C164.925 89.762 161.745 90.3402 158.71 91.0629L158.854 91.352C158.999 91.4966 159.288 91.7857 159.577 91.9302C160.155 92.3638 161.022 92.7975 161.022 94.2429V131.68C161.022 132.981 160.155 133.559 159.577 133.993C159.288 134.137 158.999 134.282 158.854 134.571L158.71 134.86H171.285L171.141 134.571C170.851 134.137 170.562 133.993 170.273 133.848Z" fill="#FFDEA5"/>
<path d="M133.101 143.128H133.246C133.39 143.128 133.535 143.273 133.824 143.273H133.969C134.113 143.273 134.258 143.417 134.402 143.417C134.547 143.417 134.691 143.562 134.836 143.562C135.125 143.562 135.414 143.417 135.559 143.273C135.848 142.983 135.848 142.694 135.992 142.405V142.116H135.125V142.261C135.125 142.405 134.98 142.405 134.98 142.55H134.836C134.691 142.55 134.547 142.55 134.547 142.405L134.402 142.261C134.113 142.116 133.824 141.972 133.535 141.972C133.246 141.972 132.957 142.116 132.668 142.261C132.379 142.55 132.234 142.839 132.234 143.128V143.417H133.101V143.128Z" fill="#FFDEA5"/>
<path d="M101.735 147.32C102.024 146.886 102.313 146.453 102.313 145.874C102.313 144.863 101.88 144.284 101.302 143.995C100.723 143.706 100.001 143.706 99.1334 143.706H97.1098V151.512H98.2661V148.187H99.1334L101.157 151.512H102.747L100.579 148.043C101.012 147.898 101.446 147.753 101.735 147.32ZM98.8443 146.886H98.2661V144.863H99.278C99.7116 144.863 100.145 144.863 100.434 145.007C100.723 145.152 100.868 145.441 100.868 145.874C100.868 146.308 100.579 146.597 100.29 146.742C99.8561 146.886 99.2779 146.886 98.8443 146.886Z" fill="#FFDEA5"/>
<path d="M110.263 143.706C109.107 146.308 107.951 148.91 106.794 151.512H108.24L108.962 149.633H112.431L113.154 151.512H114.6L111.275 143.706H110.263ZM109.541 148.476L110.697 145.585L111.853 148.476H109.541Z" fill="#FFDEA5"/>
<path d="M87.5698 143.562C86.4135 143.562 85.4017 143.995 84.679 144.718C83.9562 145.441 83.5226 146.453 83.5226 147.609C83.5226 148.765 83.9562 149.777 84.679 150.5C85.4017 151.223 86.4135 151.656 87.5698 151.656C88.7262 151.656 89.738 151.223 90.4607 150.5C91.1835 149.777 91.6171 148.765 91.6171 147.609C91.6171 146.453 91.1835 145.441 90.4607 144.718C89.738 143.995 88.7262 143.562 87.5698 143.562ZM89.5935 149.633C89.1599 150.066 88.4371 150.5 87.7144 150.5C86.9917 150.5 86.269 150.211 85.8353 149.633C85.4017 149.054 85.1126 148.332 85.1126 147.609C85.1126 146.742 85.4017 146.019 85.8353 145.585C86.269 145.152 86.9917 144.718 87.7144 144.718C88.4371 144.718 89.1599 145.007 89.5935 145.585C90.0271 146.163 90.3162 146.886 90.3162 147.609C90.3162 148.476 90.0271 149.199 89.5935 149.633Z" fill="#FFDEA5"/>
<path d="M133.535 143.706C132.379 146.308 131.222 148.91 130.066 151.512H131.511L132.234 149.633H135.703L136.426 151.512H137.871L134.547 143.706H133.535ZM132.812 148.476L133.969 145.585L135.125 148.476H132.812Z" fill="#FFDEA5"/>
<path d="M77.7408 149.488C77.4517 149.777 77.1627 150.066 76.8736 150.211C76.5845 150.355 76.1508 150.5 75.7172 150.5C74.9945 150.5 74.2718 150.211 73.8381 149.633C73.4045 149.054 73.1154 148.332 73.1154 147.609C73.1154 146.886 73.4045 146.163 73.8381 145.585C74.2718 145.152 74.9945 144.718 75.7172 144.718C76.0063 144.718 76.4399 144.863 76.729 144.863C77.0181 145.007 77.3072 145.152 77.4517 145.441L77.5963 145.585L78.7526 144.718L78.6081 144.573C78.319 144.14 77.8854 143.851 77.4517 143.706C77.0181 143.417 76.4399 143.417 75.8618 143.417C74.7054 143.417 73.6936 143.851 72.9709 144.573C72.2481 145.296 71.8145 146.308 71.8145 147.464C71.8145 148.621 72.2481 149.633 72.9709 150.355C73.6936 151.078 74.7054 151.512 75.8618 151.512C76.4399 151.512 77.0181 151.367 77.5963 151.223C78.0299 150.933 78.4636 150.644 78.8972 150.211L79.0417 150.066L78.0299 149.199L77.7408 149.488Z" fill="#FFDEA5"/>
<path d="M52.5901 143.706H49.5547V151.512H52.5901C53.4574 151.512 54.6137 151.223 55.3365 150.355C55.9146 149.777 56.3483 148.91 56.3483 147.609C56.3483 146.308 55.9146 145.441 55.3365 144.863C54.6137 143.995 53.4574 143.706 52.5901 143.706ZM54.3246 149.633C53.891 150.066 53.1683 150.355 52.301 150.355H50.8556V145.007H52.301C53.1683 145.007 53.891 145.296 54.3246 145.73C54.7583 146.163 55.0474 146.742 55.0474 147.753C55.0474 148.476 54.7583 149.199 54.3246 149.633Z" fill="#FFDEA5"/>
<path d="M146.399 143.562C145.243 143.562 144.231 143.995 143.509 144.718C142.786 145.441 142.352 146.453 142.352 147.609C142.352 148.765 142.786 149.777 143.509 150.5C144.231 151.223 145.243 151.656 146.399 151.656C147.556 151.656 148.568 151.223 149.29 150.5C150.013 149.777 150.447 148.765 150.447 147.609C150.447 146.453 150.013 145.441 149.29 144.718C148.568 143.995 147.556 143.562 146.399 143.562ZM148.423 149.633C147.989 150.066 147.267 150.5 146.544 150.5C145.821 150.5 145.099 150.211 144.665 149.633C144.231 149.054 143.942 148.332 143.942 147.609C143.942 146.742 144.231 146.019 144.665 145.585C145.099 145.152 145.821 144.718 146.544 144.718C147.267 144.718 147.989 145.007 148.423 145.585C148.857 146.163 149.146 146.886 149.146 147.609C149.146 148.476 148.857 149.199 148.423 149.633Z" fill="#FFDEA5"/>
<path d="M62.9973 148.043H66.6109V146.886H62.9973V144.863H66.7555V143.706H61.6964V151.512H67.0446V150.211H62.9973V148.043Z" fill="#FFDEA5"/>
<path d="M124.862 149.488C124.573 149.777 124.284 150.066 123.995 150.211C123.706 150.355 123.272 150.5 122.839 150.5C122.116 150.5 121.393 150.211 120.96 149.633C120.526 149.054 120.237 148.332 120.237 147.609C120.237 146.886 120.526 146.163 120.96 145.585C121.393 145.152 122.116 144.718 122.839 144.718C123.128 144.718 123.561 144.863 123.85 144.863C124.14 145.007 124.429 145.152 124.573 145.441L124.718 145.585L125.874 144.718L125.73 144.573C125.44 144.14 125.007 143.851 124.573 143.706C124.14 143.417 123.561 143.417 122.983 143.417C121.827 143.417 120.815 143.851 120.092 144.573C119.37 145.296 118.936 146.308 118.936 147.464C118.936 148.476 119.37 149.488 119.948 150.211C120.526 150.789 121.249 151.367 122.116 151.512L121.682 152.09L122.116 152.523H122.55C122.694 152.523 122.694 152.523 122.839 152.523C122.839 152.523 122.839 152.523 122.839 152.668C122.839 152.668 122.839 152.813 122.694 152.813C122.55 152.813 122.405 152.957 122.405 152.957C122.261 152.957 122.116 152.957 122.116 152.957C121.971 152.957 121.827 152.957 121.827 152.813L121.682 152.668L121.249 153.391L121.393 153.535C121.538 153.68 121.682 153.68 121.971 153.68C122.116 153.68 122.405 153.68 122.55 153.68C122.839 153.68 123.272 153.535 123.561 153.391C123.85 153.246 123.995 152.957 123.995 152.523C123.995 152.234 123.85 151.945 123.706 151.801C123.561 151.656 123.272 151.512 122.983 151.512C123.561 151.512 124.14 151.367 124.573 151.223C125.007 150.933 125.44 150.644 125.874 150.211L126.019 150.066L125.007 149.199L124.862 149.488Z" fill="#FFDEA5"/>
</svg>
