<svg width="241" height="58" viewBox="0 0 241 58" fill="none" xmlns="http://www.w3.org/2000/svg">
<path fill-rule="evenodd" clip-rule="evenodd" d="M39.133 10.581C38.6588 9.27699 38.1846 7.97296 37.829 6.66891C37.7104 6.31326 37.829 6.07616 38.1846 6.07616C48.4984 3.34952 56.9154 3.34951 67.3478 5.2463C68.2962 5.4834 68.5333 5.72052 68.1777 6.66891C65.451 12.5964 62.2502 17.3384 56.4412 20.4207C56.2041 20.5392 56.2041 20.6578 56.4412 20.8949C61.3018 25.7554 64.5026 30.2603 68.1777 35.8321C68.6519 36.5434 69.1261 37.4918 67.5849 37.4918C58.101 38.2031 50.1581 37.6104 42.9266 30.9716C42.5709 30.7345 42.5709 30.7345 42.9266 30.4974C43.875 29.3119 44.9419 28.2449 46.0089 27.2965C46.1274 27.178 46.246 27.178 46.3645 27.2965C50.0396 30.4974 56.0856 33.1055 60.9461 33.6982C61.6574 33.8168 61.8945 33.5797 61.4203 32.9869C56.6783 26.7038 48.7355 20.3021 41.6225 16.2714C41.1483 15.9158 40.9113 15.6787 40.7927 15.4416C40.5556 14.7303 40.3185 14.1375 40.0814 13.5448C39.9629 13.0706 40.2 12.952 40.3185 12.952L43.7565 12.1222C43.9935 12.0036 44.2306 12.0036 44.7048 12.3593C47.0758 13.7819 49.4468 15.323 51.5807 16.9827C55.3743 15.7972 58.9308 12.7149 61.1832 9.5141C54.3073 8.68425 46.6016 9.39554 39.8443 11.1738C39.4886 11.0552 39.2516 10.9367 39.133 10.581ZM7.59882 32.8684C7.36172 33.224 7.24316 33.5797 7.95446 33.5797C12.815 32.9869 18.9796 30.4974 22.6546 27.2965C22.7732 27.178 23.0103 27.0594 23.2474 27.2965C24.3143 28.2449 25.3812 29.3119 26.3296 30.4974C26.3296 30.6159 26.4482 30.7345 26.3296 30.853C18.9796 37.6103 11.0368 38.0846 1.55279 37.4918C0.0116433 37.3733 0.485842 36.5434 0.96004 35.7136C4.63508 30.2603 7.59882 25.6368 12.815 20.7763C12.9335 20.6578 12.9335 20.5392 12.815 20.4207C7.00607 17.4569 3.80523 12.5964 0.96004 6.78745C0.485842 5.83906 0.722937 5.60196 1.78988 5.36486C12.1037 3.46807 20.6393 3.46806 30.9531 6.1947C31.1902 6.31325 31.4273 6.43181 31.3087 6.66891C30.8345 8.21006 30.3603 9.39555 29.8861 10.8181C29.7676 11.0552 29.649 11.2923 28.9377 11.0552C22.4175 9.39555 14.9489 8.68425 8.31011 9.277C7.83591 9.277 7.59881 9.51409 7.95446 9.98829C10.2069 13.0706 13.7634 15.7972 17.3199 16.8642C19.5723 15.2045 21.9433 13.5448 24.3143 12.1222C24.5514 12.0036 24.5514 12.0036 24.9071 12.0036L28.7006 12.8335C28.8192 12.8335 29.0563 12.952 28.9377 13.3077C28.5821 14.1375 28.345 14.7303 28.1079 15.5601C28.1079 15.6787 27.9894 15.7972 27.8708 15.9158C20.6393 19.9465 12.4594 26.4667 7.59882 32.8684ZM26.9224 21.6061C26.2111 21.0134 25.4998 20.5392 24.67 20.065C24.4329 19.9465 24.1958 19.9465 24.0772 20.065C22.6546 21.0134 21.3506 22.0804 20.0465 23.1473C19.928 23.1473 19.8094 23.2658 20.0465 23.3844C32.6128 28.9562 32.6128 44.6048 34.0354 56.6968C34.0354 57.171 34.7467 57.171 34.8652 56.6968C36.2878 44.7233 36.1693 29.0748 48.7355 23.503C49.0912 23.3844 48.9726 23.2658 48.7355 23.0287C47.4315 22.0803 46.246 21.132 44.9419 20.1836C44.5863 19.9465 44.4677 20.065 44.2306 20.1836C43.5193 20.6578 42.808 21.132 42.2153 21.6061C41.9782 21.8432 41.8596 21.7247 41.7411 21.6061C38.6588 15.323 36.762 7.02455 34.7467 0.267225C34.6281 -0.0884239 34.391 -0.0884239 34.2725 0.267225C32.6128 6.6689 30.1233 15.7972 27.2781 21.7247C27.1595 21.6062 27.0409 21.6061 26.9224 21.6061ZM34.7467 18.0497C34.5096 17.2198 34.1539 17.5755 34.0354 18.0497C33.2055 20.5392 32.1386 22.7917 30.8346 25.0441C30.716 25.2812 30.716 25.2812 30.8346 25.3997C32.2571 27.178 33.3241 28.9562 34.2725 30.9716C34.2725 31.0901 34.391 31.0901 34.5096 30.9716C35.5765 28.7191 36.5249 27.4151 37.9475 25.3997C38.0661 25.2812 37.9475 25.1626 37.9475 25.0441C36.6435 22.6731 35.6951 20.6578 34.7467 18.0497Z" fill="#FFDEA5"/>
<path fill-rule="evenodd" clip-rule="evenodd" d="M87.1456 38.5588H92.0061C98.2892 38.5588 100.186 36.1878 103.031 31.6829C103.268 31.3272 103.624 31.5643 103.505 31.92C102.913 34.4095 102.32 36.8991 101.846 39.5071H76.4761C76.8318 39.033 76.9503 38.9144 77.5431 38.5588C78.3729 38.0846 79.4399 37.4918 79.4399 35.8321V6.90602C79.4399 4.53502 77.5431 4.65357 76.4761 3.34953H89.5166C88.5682 4.77212 86.5529 4.53502 86.5529 6.90602V37.966C86.6714 38.4402 87.0271 38.4402 87.1456 38.5588Z" fill="#FFDEA5"/>
<path fill-rule="evenodd" clip-rule="evenodd" d="M124.844 21.2505V36.5434C125.319 37.4918 126.03 38.3216 126.86 38.7958C127.69 39.27 128.638 39.5071 129.705 39.5071C131.957 39.5071 133.498 38.4402 134.565 36.6619C135.751 34.5281 136.225 31.4458 136.225 28.1264C136.225 25.6368 135.988 23.74 135.277 22.1989C134.684 20.6578 133.617 19.5908 132.076 18.8795C131.009 18.2868 129.705 18.1682 128.401 18.6424C127.215 18.9981 125.911 19.8279 124.844 21.2505ZM118.443 6.19471C118.443 5.12776 117.731 4.77212 117.257 4.41647C117.02 4.29792 116.783 4.17938 116.664 3.94228L116.546 3.82372L118.087 3.46807H119.035L124.37 2.28257H124.726V19.8279C124.726 20.065 124.726 20.3021 125.081 19.9465C126.03 18.8795 126.978 18.0497 127.927 17.4569C129.112 16.7456 130.535 16.39 132.076 16.39C134.921 16.39 137.648 17.8126 139.545 20.065C141.441 22.1989 142.627 25.2812 142.627 28.482C142.627 31.8014 141.204 34.8837 138.833 37.0176C134.921 40.5741 128.875 41.5225 124.014 39.5071C122.118 38.6773 121.288 39.033 120.577 39.2701L118.917 39.9813C118.561 40.0999 118.324 39.9813 118.324 39.6257V28.482L118.443 6.19471Z" fill="#FFDEA5"/>
<path fill-rule="evenodd" clip-rule="evenodd" d="M159.579 19.3537C158.987 17.694 157.92 16.7456 156.141 16.7456C154.6 16.7456 153.652 17.694 152.941 19.1166C152.111 20.7763 151.755 23.2659 151.518 25.8739C151.518 25.9925 151.518 26.2296 151.874 26.2296H159.935C160.409 26.2296 160.409 25.9925 160.409 25.8739C160.409 23.2659 160.172 21.0134 159.579 19.3537ZM152.704 13.4262C155.312 11.1738 160.291 10.4625 161.002 7.6173C161.121 7.26165 161.239 6.78747 161.595 7.26167C162.187 8.09151 163.136 9.63265 162.662 10.9367C161.713 14.1375 155.786 12.3593 152.822 13.7819C152.466 13.9004 152.466 13.6633 152.704 13.4262ZM148.554 36.7805C146.302 34.6466 144.879 31.5643 144.879 28.1264C144.879 24.807 146.065 21.7247 148.199 19.4723C150.214 17.3384 152.941 16.0343 156.141 16.0343C158.987 16.0343 161.595 17.2198 163.492 19.1166C165.151 20.8949 166.337 23.3844 166.455 26.2296C166.455 26.5852 166.455 26.9409 165.625 26.9409H151.874C151.399 26.9409 151.399 27.0594 151.399 27.2965C151.281 29.1933 151.518 32.0385 152.466 34.4095C153.178 36.1878 154.245 37.6104 155.904 38.3217C157.683 39.033 159.224 38.9144 160.646 38.4402C161.713 38.0845 162.78 37.4918 163.847 36.7805C164.558 36.3063 164.677 36.7805 164.203 37.2547C163.492 37.966 162.662 38.6773 161.713 39.1515C160.528 39.7442 158.987 40.0999 157.445 40.0999C154.008 40.2184 150.807 38.9144 148.554 36.7805Z" fill="#FFDEA5"/>
<path fill-rule="evenodd" clip-rule="evenodd" d="M175.584 2.40113V36.8991C175.584 37.966 176.295 38.4402 176.769 38.7958C177.006 38.9144 177.243 39.033 177.362 39.2701L177.48 39.5071H167.167L167.285 39.2701C167.404 39.1515 167.641 38.9144 167.878 38.7958C168.352 38.4402 169.063 38.0846 169.063 36.8991V6.19471C169.063 5.12776 168.352 4.65358 167.878 4.29793C167.641 4.17938 167.404 4.06082 167.285 3.82372L167.167 3.58662C169.775 2.99388 172.383 2.51969 174.872 1.92694C175.346 2.04549 175.584 2.16403 175.584 2.40113Z" fill="#FFDEA5"/>
<path fill-rule="evenodd" clip-rule="evenodd" d="M196.567 39.5071V36.8991C196.567 36.662 196.448 36.662 196.33 36.7805C195.263 37.8475 194.196 38.5588 193.01 39.1515C191.588 39.8628 190.047 40.2184 188.506 40.2184C186.253 40.2184 184.119 39.3886 182.697 38.0846C181.274 36.7805 180.326 35.0023 180.326 32.8684V20.6578C180.326 19.5908 179.614 19.1166 179.14 18.761C178.903 18.6424 178.666 18.5239 178.547 18.2868C178.547 18.1682 178.547 18.0497 178.666 18.0497L186.135 16.8642C186.372 16.8642 186.609 16.8642 186.609 17.2198V33.6982C186.609 34.8837 187.083 35.8321 187.794 36.5434C188.268 36.8991 188.743 37.2547 189.335 37.4918C189.928 37.7289 190.639 37.8474 191.232 37.8474C192.892 37.8474 194.789 37.1361 196.33 35.4765V20.6578C196.33 19.5908 195.618 19.1166 195.144 18.761C194.907 18.6424 194.789 18.5239 194.67 18.4053C194.433 18.1682 194.552 18.0497 194.789 18.0497C197.278 17.694 199.768 17.2198 202.257 16.8642C202.494 16.8642 202.731 16.8642 202.731 17.2198V35.595C202.731 36.662 203.443 37.1362 203.917 37.3733C204.154 37.4918 204.391 37.6103 204.51 37.8474C204.628 37.966 204.51 38.0846 204.391 38.0846L196.567 39.7442C196.685 39.8628 196.567 39.7442 196.567 39.5071Z" fill="#FFDEA5"/>
<path fill-rule="evenodd" clip-rule="evenodd" d="M225.849 28.482C225.137 29.7861 224.9 31.0901 224.9 32.3942C224.9 33.9353 225.137 35.1208 225.612 35.9507C226.086 36.662 226.56 37.1362 227.271 37.3733C227.982 37.6104 228.694 37.6104 229.405 37.3733C230.354 37.1362 231.42 36.4249 232.369 35.4765V23.2659C232.369 22.6731 232.132 23.0288 232.013 23.2659C231.302 23.9772 230.235 24.5699 228.575 25.6369L228.457 25.7554C227.271 26.3481 226.441 27.4151 225.849 28.482ZM220.277 38.2031C219.091 36.8991 218.261 35.2394 218.261 33.224C218.261 28.1264 223.359 26.2296 227.034 24.6885L227.508 24.4514C230.591 23.2659 232.369 22.5546 232.369 20.7763V20.5392C232.369 19.5908 232.132 18.5239 231.42 17.694C229.879 16.0343 227.153 16.6271 225.612 18.0497C224.545 18.9981 223.833 20.3021 223.596 21.4876C223.596 21.6062 223.359 21.9618 223.003 21.7247L220.277 20.6578C219.921 20.4207 220.158 20.1836 220.277 20.065C224.189 15.5601 231.539 14.3746 236.044 18.4053C237.822 19.9465 238.771 22.0804 238.771 24.6885V35.4765C238.771 37.0176 239.837 37.0176 240.549 37.6104C240.667 37.7289 240.667 37.966 240.43 37.966C237.941 38.5588 235.333 39.0329 232.843 39.6257C232.606 39.6257 232.487 39.3886 232.487 39.2701V37.0176C232.487 36.4249 232.25 36.662 232.013 36.7805C231.302 37.4918 230.235 38.3217 229.168 38.9144C227.982 39.5072 226.678 39.9813 225.256 39.9813C223.241 40.2184 221.462 39.5071 220.277 38.2031Z" fill="#FFDEA5"/>
<path fill-rule="evenodd" clip-rule="evenodd" d="M115.242 39.5072H105.165L105.284 39.2701C105.402 39.1515 105.639 38.9144 105.876 38.7959C106.351 38.4402 107.062 38.0846 107.062 36.8991V20.8949C107.062 19.8279 106.351 19.3537 105.876 18.9981C105.639 18.8795 105.402 18.761 105.284 18.5239L105.165 18.2868C107.655 17.694 110.144 17.2198 112.634 16.6271C113.108 16.5085 113.464 16.2714 113.464 17.1013V36.7805C113.464 37.8475 114.175 38.3217 114.649 38.6773C114.886 38.7959 115.123 38.9144 115.242 39.1515L115.36 39.3886H115.242V39.5072ZM107.655 9.03992C109.196 7.61732 111.567 7.61732 113.108 9.03992C116.427 12.1222 112.16 15.9158 108.959 14.7303C106.469 13.7819 105.402 11.0553 107.655 9.03992Z" fill="#FFDEA5"/>
<path fill-rule="evenodd" clip-rule="evenodd" d="M214.942 2.40113V36.8991C214.942 37.966 215.653 38.4402 216.128 38.7958C216.365 38.9144 216.602 39.033 216.72 39.2701L216.839 39.5071H206.525L206.644 39.2701C206.762 39.1515 206.999 38.9144 207.236 38.7958C207.711 38.4402 208.422 38.0846 208.422 36.8991V6.19471C208.422 5.12776 207.711 4.65358 207.236 4.29793C206.999 4.17938 206.762 4.06082 206.644 3.82372L206.525 3.58662C209.133 2.99388 211.741 2.51969 214.231 1.92694C214.705 2.04549 214.942 2.16403 214.942 2.40113Z" fill="#FFDEA5"/>
<path fill-rule="evenodd" clip-rule="evenodd" d="M113.522 55.1538H111.037V48.6393H113.522C114.231 48.6393 115.178 48.8806 115.77 49.6044C116.243 50.087 116.598 50.8108 116.598 51.8966C116.598 52.9823 116.243 53.7062 115.77 54.1887C115.178 54.9126 114.231 55.1538 113.522 55.1538ZM113.285 49.7251H112.102V54.1887H113.285C113.995 54.1887 114.586 53.9475 114.941 53.5855C115.296 53.2236 115.533 52.741 115.533 51.8966C115.533 51.1727 115.296 50.5695 114.941 50.2076C114.586 49.8457 113.995 49.7251 113.285 49.7251ZM125.116 55.1538H120.975V48.6393H125.116V49.7251H122.04V51.2934H124.879V52.3791H122.04V54.1887H125.234V55.2745H125.116V55.1538ZM133.871 48.7599C134.226 48.8806 134.581 49.1218 134.818 49.4838L134.936 49.6044L133.989 50.3282L133.871 50.2076C133.753 49.9663 133.516 49.8457 133.279 49.7251C133.043 49.6044 132.806 49.6044 132.451 49.6044C131.86 49.6044 131.268 49.8457 130.913 50.3282C130.558 50.8108 130.322 51.414 130.322 52.0172C130.322 52.741 130.558 53.3442 130.913 53.7061C131.268 54.0681 131.86 54.43 132.451 54.43C132.806 54.43 133.043 54.3094 133.398 54.1887C133.634 54.0681 133.871 53.8268 134.108 53.5855L134.226 53.4649L135.054 54.1887L134.936 54.3093C134.699 54.6713 134.344 55.0332 133.871 55.1538C133.516 55.3951 133.043 55.3951 132.451 55.3951C131.505 55.3951 130.677 55.0332 130.085 54.43C129.494 53.8268 129.139 52.9823 129.139 52.0172C129.139 51.0521 129.494 50.2076 130.085 49.6044C130.677 49.0012 131.505 48.6393 132.451 48.6393C133.043 48.5187 133.398 48.6393 133.871 48.7599ZM144.637 54.3093C144.046 54.9125 143.218 55.2745 142.271 55.2745C141.325 55.2745 140.496 54.9125 139.905 54.3093C139.313 53.7061 138.958 52.8617 138.958 51.8966C138.958 50.9314 139.313 50.087 139.905 49.4838C140.496 48.8806 141.325 48.5187 142.271 48.5187C143.218 48.5187 144.046 48.8806 144.637 49.4838C145.229 50.087 145.584 50.9314 145.584 51.8966C145.584 52.8617 145.229 53.7061 144.637 54.3093ZM140.615 53.5855C140.97 53.9475 141.561 54.3093 142.153 54.3093C142.744 54.3093 143.336 54.0681 143.691 53.5855C144.046 53.103 144.282 52.4998 144.282 51.8966C144.282 51.1727 144.046 50.5695 143.691 50.2076C143.336 49.8457 142.744 49.4838 142.153 49.4838C141.561 49.4838 140.97 49.725 140.615 50.2076C140.26 50.6902 140.023 51.2934 140.023 51.8966C140.023 52.6204 140.26 53.2236 140.615 53.5855ZM150.789 55.1538H149.961V48.6393H151.618C152.209 48.6393 152.801 48.6393 153.392 48.8806C153.865 49.1218 154.22 49.6044 154.22 50.4489C154.22 50.9315 154.102 51.2934 153.747 51.6553C153.511 51.8966 153.156 52.1378 152.801 52.1378L154.575 55.0332H153.274L151.618 52.2585H150.908V55.0332H150.789V55.1538ZM151.736 49.7251H150.908V51.414H151.381C151.736 51.414 152.209 51.414 152.564 51.2934C152.801 51.1727 153.037 50.9315 153.037 50.5695C153.037 50.2076 152.919 49.9663 152.682 49.8457C152.446 49.7251 152.091 49.7251 151.736 49.7251ZM158.953 55.1538H157.888C158.835 52.9823 159.781 50.8108 160.727 48.6393H161.674L164.395 55.1538H163.212L162.62 53.5855H159.781L158.953 55.1538ZM160.136 52.6204H162.147L161.201 50.2076L160.136 52.6204ZM172.44 48.7599C172.795 48.8806 173.15 49.1218 173.387 49.4838L173.505 49.6044L172.559 50.3282L172.44 50.2076C172.322 49.9663 172.085 49.8457 171.849 49.7251C171.612 49.6044 171.375 49.6044 171.02 49.6044C170.429 49.6044 169.837 49.8457 169.482 50.3282C169.128 50.8108 168.891 51.414 168.891 52.0172C168.891 52.741 169.128 53.3442 169.482 53.7061C169.837 54.0681 170.429 54.43 171.02 54.43C171.375 54.43 171.612 54.3094 171.967 54.1887C172.204 54.0681 172.44 53.8268 172.677 53.5855L172.795 53.4649L173.623 54.1887L173.505 54.3093C173.268 54.6713 172.913 55.0332 172.44 55.1538C172.085 55.3951 171.612 55.3951 171.139 55.3951C171.375 55.3951 171.494 55.5158 171.73 55.6364C171.849 55.757 171.967 55.9983 171.967 56.2396C171.967 56.6015 171.849 56.7222 171.612 56.9634C171.375 57.0841 171.02 57.2047 170.784 57.2047C170.666 57.2047 170.429 57.2047 170.311 57.2047C170.192 57.2047 169.956 57.0841 169.837 57.0841L169.719 56.9634L169.956 56.3602L170.074 56.4809C170.192 56.4809 170.311 56.6015 170.311 56.6015C170.429 56.6015 170.547 56.6015 170.547 56.6015C170.666 56.6015 170.784 56.6015 170.784 56.4809L170.902 56.3602V56.2396C170.902 56.2396 170.784 56.2396 170.666 56.2396H170.311L169.956 55.8777L170.311 55.3951C169.601 55.2745 169.009 54.9125 168.536 54.3093C168.063 53.7061 167.708 52.9823 167.708 52.0172C167.708 51.0521 168.063 50.2076 168.654 49.6044C169.246 49.0012 170.074 48.6393 171.02 48.6393C171.612 48.5187 171.967 48.6393 172.44 48.7599ZM178.119 55.1538H177.054C178.001 52.9823 178.947 50.8108 179.894 48.6393H180.84L183.561 55.1538H182.378L181.787 53.5855H178.947L178.119 55.1538ZM179.184 52.6204H181.195L180.249 50.2076L179.184 52.6204ZM179.421 48.1567C179.421 48.1567 179.302 48.2774 179.302 48.398V48.5187H178.592V48.2774C178.592 48.0361 178.711 47.6742 178.947 47.5535C179.066 47.4329 179.302 47.3123 179.657 47.3123C179.894 47.3123 180.13 47.4329 180.367 47.5535L180.485 47.6742C180.604 47.6742 180.604 47.7948 180.722 47.7948H180.84C180.84 47.7948 180.959 47.6742 180.959 47.5535V47.4329H181.668V47.6742C181.668 47.9155 181.55 48.2774 181.313 48.398C181.195 48.5186 180.959 48.6393 180.722 48.6393C180.604 48.6393 180.485 48.6393 180.367 48.5187C180.249 48.5187 180.13 48.398 180.012 48.398H179.894C179.775 48.398 179.657 48.2774 179.421 48.2774C179.539 48.0361 179.539 48.1567 179.421 48.1567ZM192.671 54.3093C192.08 54.9125 191.252 55.2745 190.305 55.2745C189.359 55.2745 188.53 54.9125 187.939 54.3093C187.347 53.7061 186.992 52.8617 186.992 51.8966C186.992 50.9314 187.347 50.087 187.939 49.4838C188.53 48.8806 189.359 48.5187 190.305 48.5187C191.252 48.5187 192.08 48.8806 192.671 49.4838C193.263 50.087 193.618 50.9314 193.618 51.8966C193.618 52.8617 193.263 53.7061 192.671 54.3093ZM188.767 53.5855C189.122 53.9475 189.714 54.3093 190.305 54.3093C190.897 54.3093 191.488 54.0681 191.843 53.5855C192.198 53.103 192.435 52.4998 192.435 51.8966C192.435 51.1727 192.198 50.5695 191.843 50.2076C191.488 49.8457 190.897 49.4838 190.305 49.4838C189.714 49.4838 189.122 49.725 188.767 50.2076C188.412 50.6902 188.175 51.2934 188.175 51.8966C188.175 52.6204 188.412 53.2236 188.767 53.5855Z" fill="#FFDEA5"/>
</svg>
