<svg width="16" height="14" viewBox="0 0 16 14" fill="none" xmlns="http://www.w3.org/2000/svg">
<path d="M16 2.0392C15.4114 2.30032 14.7786 2.47672 14.1147 2.55608C14.7924 2.14984 15.313 1.50656 15.558 0.740002C14.9237 1.11624 14.2212 1.38936 13.4734 1.53656C12.8747 0.89856 12.0216 0.5 11.0774 0.5C9.26463 0.5 7.79479 1.96968 7.79479 3.78248C7.79479 4.03977 7.82383 4.29033 7.87983 4.53057C5.15166 4.39369 2.73294 3.0868 1.1139 1.1008C0.831335 1.5856 0.669414 2.14944 0.669414 2.75105C0.669414 3.88993 1.24894 4.89465 2.12974 5.48329C1.59166 5.46625 1.08549 5.31857 0.642934 5.07273C0.642561 5.08641 0.642561 5.10017 0.642561 5.11401C0.642561 6.70441 1.77408 8.03105 3.27577 8.33281C3.00033 8.40785 2.71032 8.44793 2.41096 8.44793C2.19944 8.44793 1.99385 8.42729 1.79336 8.38905C2.21113 9.69313 3.42337 10.6422 4.85985 10.6686C3.73641 11.5491 2.32104 12.0739 0.783042 12.0739C0.518081 12.0739 0.256801 12.0583 0 12.0279C1.45272 12.9594 3.17817 13.5028 5.03193 13.5028C11.0698 13.5028 14.3716 8.50097 14.3716 4.16304C14.3716 4.02072 14.3684 3.8792 14.3621 3.73832C15.0034 3.2756 15.5599 2.69752 15.9999 2.0392H16Z" fill="white"/>
</svg>
