<svg width="16" height="16" viewBox="0 0 16 16" fill="none" xmlns="http://www.w3.org/2000/svg">
<path d="M0.972656 15.0445L2.03798 11.1848C1.38301 10.0512 1.03941 8.76742 1.04141 7.46133C1.03354 3.344 4.38899 0 8.51319 0C10.5142 0 12.3934 0.773333 13.8088 2.18379C15.2241 3.59426 15.9999 5.46708 15.9999 7.46133C15.9999 11.5713 12.6448 14.9157 8.52064 14.9157C7.27013 14.9173 6.03971 14.6042 4.94485 14.0057L0.972656 15.0445ZM5.12005 12.6634L5.34828 12.8C6.30567 13.3649 7.3992 13.6635 8.5136 13.6644C11.9374 13.6644 14.7299 10.8812 14.7299 7.46913C14.7299 5.81579 14.0834 4.25395 12.9116 3.08595C11.739 1.91877 10.1716 1.26646 8.51277 1.26646C5.08112 1.26646 2.28857 4.04964 2.28857 7.46174C2.28857 8.62974 2.61579 9.77477 3.23999 10.7602L3.38455 10.9957L2.75289 13.2857L5.12005 12.6634Z" fill="white"/>
<path d="M0.972656 15.0445L2.03798 11.1848C1.38301 10.0512 1.03941 8.76742 1.04141 7.46133C1.03354 3.344 4.38899 0 8.51319 0C10.5142 0 12.3934 0.773333 13.8088 2.18379C15.2241 3.59426 15.9999 5.46708 15.9999 7.46133C15.9999 11.5713 12.6448 14.9157 8.52064 14.9157C7.27013 14.9173 6.03971 14.6042 4.94485 14.0057L0.972656 15.0445ZM5.12005 12.6634L5.34828 12.8C6.30567 13.3649 7.3992 13.6635 8.5136 13.6644C11.9374 13.6644 14.7299 10.8812 14.7299 7.46913C14.7299 5.81579 14.0834 4.25395 12.9116 3.08595C11.739 1.91877 10.1716 1.26646 8.51277 1.26646C5.08112 1.26646 2.28857 4.04964 2.28857 7.46174C2.28857 8.62974 2.61579 9.77477 3.23999 10.7602L3.38455 10.9957L2.75289 13.2857L5.12005 12.6634Z" fill="white"/>
<path fill-rule="evenodd" clip-rule="evenodd" d="M6.64953 4.33714C6.51285 4.02617 6.36042 4.01878 6.23119 4.01878C6.11687 4.01099 5.9951 4.01099 5.86587 4.01099C5.74409 4.01099 5.53865 4.05652 5.36385 4.24606C5.18865 4.4356 4.70942 4.88319 4.70942 5.80093C4.70942 6.71827 5.37918 7.60565 5.4703 7.72668C5.56143 7.84811 6.76385 9.78945 8.66587 10.5402C10.2485 11.1618 10.5683 11.0407 10.9108 11.0026C11.253 10.9648 12.0139 10.5554 12.1737 10.1152C12.3257 9.68319 12.3257 9.30411 12.2802 9.22822C12.2346 9.15232 12.105 9.10678 11.9223 9.00832C11.7322 8.91724 10.8193 8.46268 10.6441 8.40155C10.4693 8.34083 10.3475 8.31047 10.2257 8.49263C10.104 8.68216 9.74652 9.0994 9.6322 9.22042C9.52575 9.34186 9.41184 9.35704 9.22918 9.26596C9.03865 9.17529 8.43806 8.97796 7.72232 8.34083C7.16729 7.84811 6.7945 7.23396 6.68019 7.05181C6.57374 6.86227 6.66486 6.76381 6.76385 6.67273C6.84752 6.58945 6.95439 6.45283 7.04551 6.34658C7.13663 6.24032 7.16687 6.15704 7.23563 6.0356C7.29652 5.91458 7.26587 5.80052 7.2203 5.70986C7.17474 5.62617 6.81687 4.70883 6.64953 4.33714Z" fill="white"/>
</svg>
