<svg width="42" height="42" viewBox="0 0 42 42" fill="none" xmlns="http://www.w3.org/2000/svg">
<path d="M38.3503 10.0344C32.2471 0.599297 19.7864 -2.20572 10.1231 3.65932C0.713996 9.52437 -2.33759 22.2745 3.76559 31.7095L4.27419 32.4745L2.23979 40.1246L9.86877 38.0846L10.6317 38.5946C13.9376 40.3796 17.4977 41.3996 21.0579 41.3996C24.8724 41.3996 28.6869 40.3796 31.9928 38.3396C41.4019 32.2195 44.1992 19.7244 38.3503 10.0344ZM33.01 29.6695C31.9928 31.1995 30.7213 32.2195 28.9412 32.4745C27.924 32.4745 26.6525 32.9845 21.5665 30.9445C17.2434 28.9045 13.6833 25.5895 11.1403 21.7645C9.61447 19.9794 8.85157 17.6844 8.59727 15.3894C8.59727 13.3494 9.36017 11.5644 10.6317 10.2894C11.1403 9.77937 11.6489 9.52437 12.1575 9.52437H13.429C13.9376 9.52437 14.4462 9.52437 14.7005 10.5444C15.2091 11.8194 16.4805 14.8794 16.4805 15.1344C16.7348 15.3894 16.7348 15.8994 16.4805 16.1544C16.7348 16.6644 16.4806 17.1744 16.2263 17.4294C15.972 17.6844 15.7177 18.1944 15.4634 18.4494C14.9548 18.7044 14.7005 19.2144 14.9548 19.7244C15.972 21.2545 17.2434 22.7845 18.5149 24.0595C20.0407 25.3345 21.5665 26.3545 23.3466 27.1195C23.8552 27.3745 24.3638 27.3745 24.6181 26.8645C24.8724 26.3545 26.1439 25.0795 26.6525 24.5695C27.1611 24.0595 27.4154 24.0595 27.924 24.3145L31.9928 26.3545C32.5014 26.6095 33.01 26.8645 33.2643 27.1195C33.5186 27.8845 33.5186 28.9045 33.01 29.6695Z" fill="#765478"/>
</svg>
