<svg width="96" height="97" viewBox="0 0 96 97" fill="none" xmlns="http://www.w3.org/2000/svg">
<path d="M47.7901 96.877L26.6864 85.7045C20.4795 82.3942 15.5139 77.8425 12.2035 71.6356C8.89315 65.8425 6.82422 59.2218 6.82422 52.1873V7.91143C6.82422 6.25626 7.65181 4.1873 8.89321 2.94592C10.1346 1.70454 11.7897 0.876953 13.8587 0.876953H82.5491C84.2043 0.876953 86.2733 1.70454 87.5147 2.94592C88.7561 4.1873 89.5837 5.84247 89.5837 7.91143V52.6011C89.5837 59.6356 87.9284 66.2563 84.2042 72.0494C80.8939 77.8425 75.5145 82.808 69.7213 86.1183L47.7901 96.877ZM13.4449 7.91143V52.6011C13.4449 58.3942 15.1001 63.7735 17.9967 68.3252C20.8933 73.2908 25.0312 77.0149 29.9968 79.4976L47.7901 89.0149L65.5834 79.4976C70.5489 77.0149 74.6869 72.877 77.5835 68.3252C80.48 63.3597 82.1352 57.9804 82.1352 52.6011V7.91143H13.4449Z" fill="#765478"/>
<path d="M47.7901 80.739V14.5321H75.1008V51.3597C75.1008 55.4976 73.8593 60.0494 71.7903 63.7735C69.7213 67.4976 66.411 70.3942 62.6869 72.4632L47.7901 80.739Z" fill="#765478"/>
</svg>
