<svg width="96" height="96" viewBox="0 0 96 96" fill="none" xmlns="http://www.w3.org/2000/svg">
<path d="M62.014 53.9828C62.7465 53.9725 63.4586 53.74 64.0557 53.316C64.5908 52.9252 64.9989 52.3859 65.2293 51.765C65.4597 51.1441 65.5022 50.469 65.3514 49.8242L62.0532 35.8574L73.047 26.4808C73.5598 26.0509 73.9314 25.4768 74.1134 24.8331C74.2955 24.1894 74.2796 23.506 74.0679 22.8715C73.9002 22.2198 73.5345 21.6361 73.0213 21.2005C72.508 20.765 71.8724 20.4989 71.2016 20.4391L56.6742 19.1836L50.981 6.0408C50.7218 5.42574 50.2839 4.9024 49.7239 4.5387C49.164 4.175 48.5076 3.9876 47.8399 4.00064C47.1677 3.99024 46.5074 4.17819 45.9416 4.54109C45.3759 4.90399 44.9299 5.42578 44.6596 6.0408L39.0056 19.2229L24.4781 20.4391C23.8049 20.4785 23.1595 20.7208 22.6268 21.134C22.0941 21.5472 21.6992 22.112 21.4941 22.7539C21.2768 23.3879 21.2581 24.0728 21.4405 24.7177C21.6229 25.3626 21.9977 25.9367 22.515 26.3632L33.548 35.7399L30.2499 49.6674C30.0991 50.3122 30.1415 50.987 30.3719 51.6079C30.6023 52.2288 31.0105 52.7684 31.5456 53.1591C32.1227 53.5573 32.8074 53.7704 33.5087 53.7704C34.2101 53.7704 34.8948 53.5573 35.4719 53.1591L47.9577 45.7834L60.4042 53.1591C60.8535 53.5783 61.411 53.8635 62.014 53.9828ZM30.1321 25.6571L42.8142 24.5584L47.7614 13.0633L52.63 24.4016L65.3121 25.461L55.6926 33.6604L58.5981 45.8617L47.8792 39.506L36.9639 45.9402L39.8301 34.1705V33.9743L30.1321 25.6571Z" fill="#765478"/>
<path d="M40.7671 64.5955L28.8857 63.5679L24.2616 52.8105C24.0404 52.3071 23.6757 51.88 23.213 51.583C22.7503 51.2859 22.2102 51.1321 21.6605 51.1406C21.1134 51.1255 20.5747 51.2771 20.1159 51.5753C19.6571 51.8736 19.2998 52.3044 19.0915 52.8105L14.4353 63.6001L2.58601 64.5955C2.03671 64.6321 1.51087 64.832 1.07601 65.1696C0.641152 65.5072 0.317117 65.9669 0.145497 66.49C-0.0322136 67.0089 -0.0475021 67.5697 0.101667 68.0976C0.250837 68.6254 0.557382 69.0953 0.980414 69.4444L9.97174 77.119L7.27435 88.5509C7.14917 89.0739 7.18318 89.6224 7.372 90.1259C7.56082 90.6294 7.89582 91.065 8.33402 91.3767C8.78952 91.7267 9.34088 91.9296 9.91458 91.9583C10.4883 91.9869 11.0571 91.8402 11.5452 91.5375L21.7247 85.5004L31.9363 91.5694C32.3752 91.8238 32.874 91.9568 33.3813 91.9547C33.9829 91.9618 34.5699 91.7699 35.0512 91.4089C35.4888 91.0891 35.8226 90.6476 36.011 90.1394C36.1994 89.6312 36.2342 89.0787 36.1108 88.5509L33.4134 77.119L42.4048 69.4444C42.8372 69.1022 43.1527 68.6341 43.308 68.105C43.4633 67.5759 43.4507 67.0116 43.2718 66.49C43.1002 65.9547 42.7675 65.4856 42.3192 65.1465C41.8709 64.8074 41.3288 64.615 40.7671 64.5955ZM7.27435 68.77L17.6465 67.8708L21.6605 58.4942L25.6424 67.7424V67.9029L36.0145 68.8022L28.1471 75.5134L30.5234 85.4683L21.7568 80.2661L12.8618 85.5645L15.1739 75.7704V75.5777L7.27435 68.77Z" fill="#765478"/>
<path d="M95.832 66.4899C95.6701 65.967 95.3531 65.5059 94.9229 65.1675C94.4928 64.8291 93.9698 64.6295 93.4236 64.5954L81.5422 63.5678L76.886 52.8103C76.674 52.3069 76.3159 51.8786 75.8579 51.5809C75.3999 51.2832 74.8631 51.1298 74.317 51.1405C73.7672 51.132 73.2272 51.2858 72.7645 51.5828C72.3018 51.8799 71.9371 52.3069 71.7159 52.8103L67.0918 63.5999L55.2104 64.5954C54.6611 64.6319 54.1353 64.8318 53.7004 65.1694C53.2656 65.507 52.9415 65.9668 52.7699 66.4899C52.5922 67.0088 52.5769 67.5696 52.7261 68.0974C52.8752 68.6252 53.1818 69.0951 53.6048 69.4443L62.6283 77.1189L59.9309 88.5507C59.7965 89.0736 59.8261 89.6252 60.0157 90.1306C60.2052 90.6361 60.5456 91.071 60.9906 91.3766C61.442 91.7352 61.9945 91.9436 62.5704 91.9724C63.1463 92.0012 63.7167 91.8491 64.2017 91.5373L74.4133 85.5002L84.5928 91.5693C85.0435 91.8235 85.5525 91.9563 86.07 91.9546C86.6715 91.9616 87.2585 91.7697 87.7398 91.4087C88.1817 91.0936 88.5168 90.6512 88.7005 90.1404C88.8841 89.6297 88.9074 89.0751 88.7674 88.5507L86.07 77.1189L95.0934 69.4443C95.4998 69.0835 95.7877 68.6085 95.9195 68.0813C96.0513 67.5542 96.0207 66.9994 95.832 66.4899ZM59.8987 68.7699L70.2709 67.8706L74.317 58.494L78.2989 67.7423V67.9028L88.671 68.802L80.8036 75.5133L83.1799 85.4681L74.4133 80.266L65.4862 85.5643L67.8304 75.7702V75.5776L59.8987 68.7699Z" fill="#765478"/>
</svg>
