<svg width="96" height="96" viewBox="0 0 96 96" fill="none" xmlns="http://www.w3.org/2000/svg">
<path d="M77.3306 70.1424L94.5025 87.3142C96.4992 89.3109 96.4992 92.1064 94.5025 94.1031C92.5057 96.0998 89.7103 96.0998 87.7136 94.1031L70.5418 76.9313C62.9542 82.9214 53.37 86.5155 43.3863 86.5155C17.8283 86.5155 -2.53828 64.5516 0.257127 38.1949C2.25385 18.2276 18.627 2.25385 38.1949 0.257127C64.1522 -2.53828 86.5156 17.8283 86.5156 43.3863C86.9149 52.9706 83.7201 62.5549 77.3306 70.1424ZM67.7464 66.5483C73.7366 60.1588 77.3306 51.7726 77.3306 42.987C77.3306 23.0198 60.1588 7.44533 39.7923 9.44205C24.2178 11.0394 11.8381 23.8185 10.2407 38.9935C7.84467 59.3601 23.8185 76.5319 43.7857 76.5319C52.5713 76.5319 60.9575 73.3372 67.347 66.9477L67.7464 66.5483Z" fill="#765478"/>
<path fill-rule="evenodd" clip-rule="evenodd" d="M43.3912 17.7107C46.8146 17.7107 49.5899 20.4825 49.5899 23.9017V42.4747C49.5899 45.8939 46.8146 48.6657 43.3912 48.6657C39.9677 48.6657 37.1924 45.8939 37.1924 42.4747V23.9017C37.1924 20.4825 39.9677 17.7107 43.3912 17.7107ZM43.3912 54.8567C46.8146 54.8567 49.5899 57.6285 49.5899 61.0477V61.1096C49.5899 64.5288 46.8146 67.3006 43.3912 67.3006C39.9677 67.3006 37.1924 64.5288 37.1924 61.1096V61.0477C37.1924 57.6285 39.9677 54.8567 43.3912 54.8567Z" fill="#765478"/>
</svg>
