<svg width="96" height="96" viewBox="0 0 96 96" fill="none" xmlns="http://www.w3.org/2000/svg">
<path d="M93.3197 21.3056C90.8296 16.0191 86.7589 11.6367 81.6701 8.7641C76.5813 5.89148 70.7258 4.6706 64.9131 5.27019C58.5409 5.90701 52.5804 8.71125 48.0274 13.2145C46.2896 11.4558 44.3165 9.94649 42.1643 8.72939C38.7876 6.78776 35.0439 5.56971 31.1711 5.15282C27.3029 4.7491 23.3931 5.1474 19.6858 6.32264C15.9785 7.49788 12.5534 9.42488 9.62427 11.9834C6.69226 14.5552 4.32434 17.7062 2.66951 21.2378C1.01469 24.7695 0.108767 28.6053 0.00880104 32.5041C-0.0881465 36.3899 0.616736 40.254 2.07943 43.8552C3.54213 47.4565 5.73126 50.7177 8.51027 53.4353L45.5942 90.1383C45.9133 90.4576 46.2928 90.71 46.7106 90.8812C47.1283 91.0523 47.576 91.1386 48.0274 91.1349C48.4746 91.1396 48.9182 91.0537 49.3313 90.8824C49.7445 90.7111 50.1186 90.4581 50.4313 90.1383L87.2807 53.6699L87.5739 53.406C90.3403 50.6952 92.5162 47.4414 93.9646 43.8492C95.4105 40.2485 96.0994 36.3889 95.9884 32.5104C95.8775 28.6319 94.969 24.8177 93.3197 21.3056ZM48.0274 82.8679L13.2887 48.481C11.1839 46.4181 9.52725 43.9431 8.42232 41.2109C7.30739 38.4885 6.77801 35.5618 6.86861 32.6213C6.91968 29.6872 7.59945 26.7983 8.86206 24.1493C10.115 21.4837 11.9047 19.1054 14.1192 17.1633C16.3336 15.2212 18.9252 13.7571 21.7315 12.8628C23.8096 12.211 25.9737 11.8751 28.1516 11.8662C28.9062 11.8721 29.6598 11.921 30.4089 12.0127C35.3148 12.4916 39.8888 14.7059 43.3076 18.2569L29.2949 32.2695C27.7333 33.8229 26.8483 35.9301 26.8324 38.1326C26.8669 40.3313 27.7491 42.4318 29.2949 43.9957L31.9919 46.6635C34.2786 48.9477 37.3785 50.2308 40.6106 50.2308C43.8427 50.2308 46.9427 48.9477 49.2293 46.6635L54.1836 41.7092C55.3394 40.558 56.7115 39.6468 58.2208 39.028C59.7302 38.4091 61.347 38.095 62.9783 38.1035C64.6107 38.0868 66.2299 38.3972 67.7404 39.0165C69.2508 39.6358 70.622 40.5514 71.7729 41.7092L80.5675 50.5038L73.0334 57.9792L65.4114 50.3866C65.0952 50.0666 64.7185 49.8126 64.3034 49.6392C63.8882 49.4659 63.4428 49.3766 62.9929 49.3766C62.543 49.3766 62.0976 49.4659 61.6824 49.6392C61.2673 49.8126 60.8907 50.0666 60.5744 50.3866C60.2535 50.7054 59.9989 51.0845 59.8251 51.502C59.6513 51.9196 59.5619 52.3674 59.5619 52.8197C59.5619 53.272 59.6513 53.7199 59.8251 54.1375C59.9989 54.555 60.2535 54.9341 60.5744 55.2529L68.1378 62.8163L60.6037 70.2917L52.9231 62.9922C52.2739 62.3469 51.3949 61.9858 50.4795 61.9886C49.5642 61.9913 48.6874 62.3577 48.0421 63.0069C47.3967 63.6561 47.0358 64.5349 47.0385 65.4503C47.0413 66.3657 47.4075 67.2425 48.0567 67.8878L55.5908 75.3925L48.0274 82.8679ZM87.5739 41.2694C86.934 42.8386 86.1072 44.3249 85.1114 45.696L76.3168 36.9014C74.5384 35.1172 72.4253 33.7014 70.0986 32.7355C67.772 31.7695 65.2776 31.2724 62.7584 31.2724C60.2392 31.2724 57.7448 31.7695 55.4181 32.7355C53.0915 33.7014 50.9784 35.1172 49.2 36.9014L44.2457 41.8264C43.2456 42.8235 41.8909 43.3834 40.4787 43.3834C39.0664 43.3834 37.7118 42.8235 36.7117 41.8264L34.044 39.1588C33.9015 39.0168 33.7891 38.8476 33.7136 38.6612C33.638 38.4748 33.6008 38.2752 33.6043 38.0741C33.6052 37.678 33.7634 37.2983 34.044 37.0186L50.1967 20.9832C50.4139 20.7998 50.6105 20.5933 50.783 20.3675C52.519 17.9693 54.748 15.9702 57.3204 14.5044C59.8668 13.0483 62.6892 12.1399 65.6069 11.837C68.5246 11.5341 71.4734 11.8436 74.2647 12.7456C77.0696 13.6196 79.6574 15.0784 81.8574 17.0257C85.1737 19.9405 87.5043 23.812 88.5281 28.1068C89.552 32.4016 89.2186 36.9083 87.5739 41.0057V41.2694Z" fill="#765478"/>
</svg>
