<svg width="96" height="96" viewBox="0 0 96 96" fill="none" xmlns="http://www.w3.org/2000/svg">
<path d="M38.0077 57.6479L32.1142 51.8117C30.8513 50.5611 28.3256 50.5611 27.0627 51.8117C25.7998 53.0623 25.7998 55.5636 27.0627 56.8142L37.1658 66.8191C38.8497 68.4865 41.3754 68.4865 43.0593 66.8191L67.0543 43.0574C68.3172 41.8068 68.3172 39.3056 67.0543 38.055C65.7914 36.8044 63.2656 36.8044 62.0027 38.055L42.2173 57.6479C40.5334 58.8985 38.8496 58.8985 38.0077 57.6479ZM46.8479 86.8288C37.5867 86.8288 28.7465 83.077 22.0111 76.824C15.2756 70.154 11.9079 61.3997 11.9079 52.2286C11.9079 43.0574 15.6966 34.3031 22.0111 27.6332C28.7465 20.9633 37.5867 17.6283 46.8479 17.6283C56.1092 17.6283 64.9494 21.3801 71.6848 27.6332C78.4203 34.3031 81.7881 43.0574 81.7881 52.2286C81.7881 61.3997 77.9993 70.154 71.6848 76.824C64.9494 83.077 56.1092 86.8288 46.8479 86.8288ZM46.8479 8.45716C35.0609 8.45716 24.1159 13.0427 15.6966 21.3801C7.27729 29.7176 2.64665 40.5562 2.64665 52.2286C2.64665 63.901 7.27729 74.7396 15.6966 83.077C24.1159 91.4144 35.0609 96 46.8479 96C58.635 96 69.58 91.4144 77.9993 83.077C86.4186 74.7396 91.0492 63.901 91.0492 52.2286C91.0492 40.5562 86.4186 29.7176 77.9993 21.3801C69.58 13.0427 58.635 8.45716 46.8479 8.45716ZM23.6949 1.78723C22.011 -0.297122 19.0642 -0.713994 16.9594 1.37036L1.8048 13.8765C-0.300026 15.544 -0.721017 18.4621 1.38381 20.5464C3.06767 22.6308 6.01444 23.0476 8.11927 20.9633L23.2739 8.45716C24.9578 7.20654 25.3787 3.87158 23.6949 1.78723ZM91.8912 13.8765L76.7365 1.37036C74.6316 -0.297124 71.6849 0.119749 70.001 1.78723C68.3171 3.87158 68.3172 6.78967 70.422 8.45716L85.5767 20.9633C87.6816 22.6308 90.6283 22.2139 92.3122 20.5464C94.417 18.4621 93.996 15.544 91.8912 13.8765Z" fill="#765478"/>
</svg>
